%TF.GenerationSoftware,KiCad,Pcbnew,8.0.4*%
%TF.CreationDate,2024-08-01T19:49:29+02:00*%
%TF.ProjectId,amplification-board,616d706c-6966-4696-9361-74696f6e2d62,rev?*%
%TF.SameCoordinates,Original*%
%TF.FileFunction,Copper,L1,Top*%
%TF.FilePolarity,Positive*%
%FSLAX46Y46*%
G04 Gerber Fmt 4.6, Leading zero omitted, Abs format (unit mm)*
G04 Created by KiCad (PCBNEW 8.0.4) date 2024-08-01 19:49:29*
%MOMM*%
%LPD*%
G01*
G04 APERTURE LIST*
G04 Aperture macros list*
%AMRoundRect*
0 Rectangle with rounded corners*
0 $1 Rounding radius*
0 $2 $3 $4 $5 $6 $7 $8 $9 X,Y pos of 4 corners*
0 Add a 4 corners polygon primitive as box body*
4,1,4,$2,$3,$4,$5,$6,$7,$8,$9,$2,$3,0*
0 Add four circle primitives for the rounded corners*
1,1,$1+$1,$2,$3*
1,1,$1+$1,$4,$5*
1,1,$1+$1,$6,$7*
1,1,$1+$1,$8,$9*
0 Add four rect primitives between the rounded corners*
20,1,$1+$1,$2,$3,$4,$5,0*
20,1,$1+$1,$4,$5,$6,$7,0*
20,1,$1+$1,$6,$7,$8,$9,0*
20,1,$1+$1,$8,$9,$2,$3,0*%
G04 Aperture macros list end*
%TA.AperFunction,ComponentPad*%
%ADD10R,1.700000X1.700000*%
%TD*%
%TA.AperFunction,SMDPad,CuDef*%
%ADD11R,1.550000X0.600000*%
%TD*%
%TA.AperFunction,ComponentPad*%
%ADD12C,0.600000*%
%TD*%
%TA.AperFunction,SMDPad,CuDef*%
%ADD13R,2.600000X3.100000*%
%TD*%
%TA.AperFunction,SMDPad,CuDef*%
%ADD14R,2.950000X4.500000*%
%TD*%
%TA.AperFunction,SMDPad,CuDef*%
%ADD15RoundRect,0.225000X-0.225000X-0.250000X0.225000X-0.250000X0.225000X0.250000X-0.225000X0.250000X0*%
%TD*%
%TA.AperFunction,SMDPad,CuDef*%
%ADD16RoundRect,0.200000X-0.200000X-0.275000X0.200000X-0.275000X0.200000X0.275000X-0.200000X0.275000X0*%
%TD*%
%TA.AperFunction,SMDPad,CuDef*%
%ADD17RoundRect,0.200000X0.200000X0.275000X-0.200000X0.275000X-0.200000X-0.275000X0.200000X-0.275000X0*%
%TD*%
%TA.AperFunction,SMDPad,CuDef*%
%ADD18RoundRect,0.135000X-0.185000X0.135000X-0.185000X-0.135000X0.185000X-0.135000X0.185000X0.135000X0*%
%TD*%
%TA.AperFunction,ComponentPad*%
%ADD19O,1.700000X1.700000*%
%TD*%
%TA.AperFunction,ViaPad*%
%ADD20C,0.600000*%
%TD*%
%TA.AperFunction,Conductor*%
%ADD21C,0.200000*%
%TD*%
G04 APERTURE END LIST*
D10*
%TO.P,J5,1,Pin_1*%
%TO.N,Output*%
X154305000Y-102000000D03*
%TD*%
D11*
%TO.P,U1,1*%
%TO.N,N/C*%
X141285000Y-95885000D03*
%TO.P,U1,2,-*%
%TO.N,Net-(U1--)*%
X141285000Y-97155000D03*
%TO.P,U1,3,+*%
%TO.N,Input*%
X141285000Y-98425000D03*
%TO.P,U1,4,V-*%
%TO.N,-15V*%
X141285000Y-99695000D03*
%TO.P,U1,5*%
%TO.N,N/C*%
X146685000Y-99695000D03*
%TO.P,U1,6*%
%TO.N,Output*%
X146685000Y-98425000D03*
%TO.P,U1,7,V+*%
%TO.N,+15V*%
X146685000Y-97155000D03*
%TO.P,U1,8*%
%TO.N,N/C*%
X146685000Y-95885000D03*
D12*
%TO.P,U1,9*%
X143385000Y-95990000D03*
X143385000Y-97190000D03*
X143385000Y-98490000D03*
X143385000Y-99590000D03*
D13*
X143985000Y-97790000D03*
D14*
X143985000Y-97790000D03*
D12*
X144585000Y-95990000D03*
X144585000Y-97190000D03*
X144585000Y-98490000D03*
X144585000Y-99590000D03*
%TD*%
D10*
%TO.P,J2,1,Pin_1*%
%TO.N,Net-(J2-Pin_1)*%
X154305000Y-84455000D03*
%TD*%
%TO.P,J1,1,Pin_1*%
%TO.N,Net-(J1-Pin_1)*%
X144305000Y-84455000D03*
%TD*%
D15*
%TO.P,C1,1*%
%TO.N,Net-(J1-Pin_1)*%
X148305000Y-84455000D03*
%TO.P,C1,2*%
%TO.N,Net-(J2-Pin_1)*%
X149855000Y-84455000D03*
%TD*%
D16*
%TO.P,R1,1*%
%TO.N,Earth*%
X125175000Y-102000000D03*
%TO.P,R1,2*%
%TO.N,Input*%
X126825000Y-102000000D03*
%TD*%
D17*
%TO.P,R2,1*%
%TO.N,Net-(U1--)*%
X136080000Y-93345000D03*
%TO.P,R2,2*%
%TO.N,Earth*%
X134430000Y-93345000D03*
%TD*%
D18*
%TO.P,R3,1*%
%TO.N,Net-(U1--)*%
X155575000Y-96010000D03*
%TO.P,R3,2*%
%TO.N,Output*%
X155575000Y-97030000D03*
%TD*%
D10*
%TO.P,J4,1,Pin_1*%
%TO.N,Input*%
X130810000Y-102000000D03*
%TD*%
%TO.P,J3,1,Pin_1*%
%TO.N,+15V*%
X130810000Y-90805000D03*
D19*
%TO.P,J3,2,Pin_2*%
%TO.N,Earth*%
X130810000Y-93345000D03*
%TO.P,J3,3,Pin_3*%
%TO.N,-15V*%
X130810000Y-95885000D03*
%TD*%
D20*
%TO.N,Net-(U1--)*%
X155575000Y-94615000D03*
X139065000Y-93345000D03*
%TD*%
D21*
%TO.N,Net-(J2-Pin_1)*%
X149855000Y-84455000D02*
X154305000Y-84455000D01*
%TO.N,Net-(J1-Pin_1)*%
X144305000Y-84455000D02*
X148305000Y-84455000D01*
%TO.N,-15V*%
X130810000Y-95885000D02*
X130102352Y-95885000D01*
X130102352Y-95885000D02*
X125657352Y-100330000D01*
X137795000Y-105410000D02*
X141285000Y-101920000D01*
X123825000Y-100330000D02*
X123825000Y-105410000D01*
X141285000Y-101920000D02*
X141285000Y-99695000D01*
X123825000Y-105410000D02*
X137795000Y-105410000D01*
X125657352Y-100330000D02*
X123825000Y-100330000D01*
%TO.N,+15V*%
X146685000Y-97155000D02*
X153035000Y-97155000D01*
X153035000Y-97155000D02*
X146685000Y-90805000D01*
X146685000Y-90805000D02*
X130810000Y-90805000D01*
%TO.N,Earth*%
X132715000Y-96520000D02*
X132715000Y-93345000D01*
X125175000Y-102000000D02*
X126325000Y-100850000D01*
X132715000Y-93345000D02*
X134430000Y-93345000D01*
X130810000Y-93345000D02*
X132715000Y-93345000D01*
X126325000Y-100850000D02*
X128385000Y-100850000D01*
X128385000Y-100850000D02*
X132715000Y-96520000D01*
%TO.N,Input*%
X130810000Y-102000000D02*
X126825000Y-102000000D01*
X134385000Y-98425000D02*
X130810000Y-102000000D01*
X141285000Y-98425000D02*
X134385000Y-98425000D01*
%TO.N,Output*%
X154180000Y-98425000D02*
X146685000Y-98425000D01*
X155575000Y-97030000D02*
X154180000Y-98425000D01*
X147160000Y-98425000D02*
X150735000Y-102000000D01*
X146685000Y-98425000D02*
X147160000Y-98425000D01*
X150735000Y-102000000D02*
X154305000Y-102000000D01*
%TO.N,Net-(U1--)*%
X136080000Y-93345000D02*
X138207500Y-95472500D01*
X139065000Y-93345000D02*
X139065000Y-94615000D01*
X139065000Y-94615000D02*
X138207500Y-95472500D01*
X155575000Y-96010000D02*
X155575000Y-94615000D01*
X139890000Y-97155000D02*
X141285000Y-97155000D01*
X138207500Y-95472500D02*
X139890000Y-97155000D01*
%TD*%
M02*
