%TF.GenerationSoftware,KiCad,Pcbnew,8.0.4*%
%TF.CreationDate,2024-08-18T15:43:04+02:00*%
%TF.ProjectId,megaboard-01,6d656761-626f-4617-9264-2d30312e6b69,rev?*%
%TF.SameCoordinates,Original*%
%TF.FileFunction,Copper,L1,Top*%
%TF.FilePolarity,Positive*%
%FSLAX46Y46*%
G04 Gerber Fmt 4.6, Leading zero omitted, Abs format (unit mm)*
G04 Created by KiCad (PCBNEW 8.0.4) date 2024-08-18 15:43:04*
%MOMM*%
%LPD*%
G01*
G04 APERTURE LIST*
G04 Aperture macros list*
%AMRoundRect*
0 Rectangle with rounded corners*
0 $1 Rounding radius*
0 $2 $3 $4 $5 $6 $7 $8 $9 X,Y pos of 4 corners*
0 Add a 4 corners polygon primitive as box body*
4,1,4,$2,$3,$4,$5,$6,$7,$8,$9,$2,$3,0*
0 Add four circle primitives for the rounded corners*
1,1,$1+$1,$2,$3*
1,1,$1+$1,$4,$5*
1,1,$1+$1,$6,$7*
1,1,$1+$1,$8,$9*
0 Add four rect primitives between the rounded corners*
20,1,$1+$1,$2,$3,$4,$5,0*
20,1,$1+$1,$4,$5,$6,$7,0*
20,1,$1+$1,$6,$7,$8,$9,0*
20,1,$1+$1,$8,$9,$2,$3,0*%
G04 Aperture macros list end*
%TA.AperFunction,SMDPad,CuDef*%
%ADD10RoundRect,0.250000X-0.312500X-0.625000X0.312500X-0.625000X0.312500X0.625000X-0.312500X0.625000X0*%
%TD*%
%TA.AperFunction,SMDPad,CuDef*%
%ADD11RoundRect,0.135000X-0.185000X0.135000X-0.185000X-0.135000X0.185000X-0.135000X0.185000X0.135000X0*%
%TD*%
%TA.AperFunction,SMDPad,CuDef*%
%ADD12RoundRect,0.250000X-1.000000X1.500000X-1.000000X-1.500000X1.000000X-1.500000X1.000000X1.500000X0*%
%TD*%
%TA.AperFunction,SMDPad,CuDef*%
%ADD13RoundRect,0.225000X0.225000X0.250000X-0.225000X0.250000X-0.225000X-0.250000X0.225000X-0.250000X0*%
%TD*%
%TA.AperFunction,SMDPad,CuDef*%
%ADD14RoundRect,0.250000X-0.475000X0.250000X-0.475000X-0.250000X0.475000X-0.250000X0.475000X0.250000X0*%
%TD*%
%TA.AperFunction,SMDPad,CuDef*%
%ADD15RoundRect,0.087500X0.725000X0.087500X-0.725000X0.087500X-0.725000X-0.087500X0.725000X-0.087500X0*%
%TD*%
%TA.AperFunction,ComponentPad*%
%ADD16R,1.700000X1.700000*%
%TD*%
%TA.AperFunction,ComponentPad*%
%ADD17O,1.700000X1.700000*%
%TD*%
%TA.AperFunction,SMDPad,CuDef*%
%ADD18RoundRect,0.225000X0.250000X-0.225000X0.250000X0.225000X-0.250000X0.225000X-0.250000X-0.225000X0*%
%TD*%
%TA.AperFunction,SMDPad,CuDef*%
%ADD19RoundRect,0.200000X-0.200000X-0.275000X0.200000X-0.275000X0.200000X0.275000X-0.200000X0.275000X0*%
%TD*%
%TA.AperFunction,SMDPad,CuDef*%
%ADD20RoundRect,0.225000X-0.250000X0.225000X-0.250000X-0.225000X0.250000X-0.225000X0.250000X0.225000X0*%
%TD*%
%TA.AperFunction,ComponentPad*%
%ADD21C,1.173000*%
%TD*%
%TA.AperFunction,SMDPad,CuDef*%
%ADD22RoundRect,0.200000X0.200000X0.275000X-0.200000X0.275000X-0.200000X-0.275000X0.200000X-0.275000X0*%
%TD*%
%TA.AperFunction,SMDPad,CuDef*%
%ADD23R,2.100000X1.700000*%
%TD*%
%TA.AperFunction,SMDPad,CuDef*%
%ADD24R,0.600000X1.550000*%
%TD*%
%TA.AperFunction,ComponentPad*%
%ADD25C,0.600000*%
%TD*%
%TA.AperFunction,SMDPad,CuDef*%
%ADD26R,3.100000X2.600000*%
%TD*%
%TA.AperFunction,SMDPad,CuDef*%
%ADD27R,4.500000X2.950000*%
%TD*%
%TA.AperFunction,ViaPad*%
%ADD28C,0.600000*%
%TD*%
%TA.AperFunction,Conductor*%
%ADD29C,0.200000*%
%TD*%
G04 APERTURE END LIST*
D10*
%TO.P,R8,1*%
%TO.N,Net-(T1-SEC_2)*%
X161787500Y-99510000D03*
%TO.P,R8,2*%
%TO.N,Net-(J7-Pin_1)*%
X164712500Y-99510000D03*
%TD*%
D11*
%TO.P,R3,1*%
%TO.N,Net-(U1--)*%
X151150000Y-101410000D03*
%TO.P,R3,2*%
%TO.N,Output*%
X151150000Y-102430000D03*
%TD*%
D10*
%TO.P,R6,1*%
%TO.N,Net-(T1-SEC_2)*%
X161787500Y-89005000D03*
%TO.P,R6,2*%
%TO.N,Net-(J7-Pin_1)*%
X164712500Y-89005000D03*
%TD*%
D12*
%TO.P,C7,1*%
%TO.N,+15V*%
X135275000Y-98670000D03*
%TO.P,C7,2*%
%TO.N,Earth*%
X135275000Y-105170000D03*
%TD*%
D10*
%TO.P,R12,1*%
%TO.N,Net-(T1-SEC_2)*%
X161787500Y-121265000D03*
%TO.P,R12,2*%
%TO.N,Net-(J7-Pin_1)*%
X164712500Y-121265000D03*
%TD*%
D13*
%TO.P,C6,1*%
%TO.N,Net-(J6-Pin_1)*%
X152030000Y-81171250D03*
%TO.P,C6,2*%
%TO.N,GND1*%
X150480000Y-81171250D03*
%TD*%
D14*
%TO.P,C3,1*%
%TO.N,GND1*%
X150970000Y-63476250D03*
%TO.P,C3,2*%
%TO.N,Net-(J6-Pin_1)*%
X150970000Y-65376250D03*
%TD*%
D10*
%TO.P,R4,1*%
%TO.N,Net-(T1-SEC_2)*%
X161787500Y-78845000D03*
%TO.P,R4,2*%
%TO.N,Net-(J7-Pin_1)*%
X164712500Y-78845000D03*
%TD*%
%TO.P,R7,1*%
%TO.N,Net-(T1-SEC_2)*%
X161787500Y-94200000D03*
%TO.P,R7,2*%
%TO.N,Net-(J7-Pin_1)*%
X164712500Y-94200000D03*
%TD*%
D15*
%TO.P,U2,1,COMP*%
%TO.N,Net-(U2-COMP)*%
X147287500Y-86188750D03*
%TO.P,U2,2,VDD*%
%TO.N,Net-(J6-Pin_1)*%
X147287500Y-85688750D03*
%TO.P,U2,3,CAP/2.5V*%
%TO.N,Net-(U2-CAP{slash}2.5V)*%
X147287500Y-85188750D03*
%TO.P,U2,4,DGND*%
%TO.N,GND1*%
X147287500Y-84688750D03*
%TO.P,U2,5,MCLK*%
%TO.N,Net-(U2-MCLK)*%
X147287500Y-84188750D03*
%TO.P,U2,6,SDATA*%
%TO.N,Net-(J6-Pin_3)*%
X143062500Y-84188750D03*
%TO.P,U2,7,SCLK*%
%TO.N,Net-(J6-Pin_4)*%
X143062500Y-84688750D03*
%TO.P,U2,8,~{FSYNC}*%
%TO.N,Net-(J6-Pin_5)*%
X143062500Y-85188750D03*
%TO.P,U2,9,AGND*%
%TO.N,GND1*%
X143062500Y-85688750D03*
%TO.P,U2,10,VOUT*%
%TO.N,Net-(J6-Pin_6)*%
X143062500Y-86188750D03*
%TD*%
D16*
%TO.P,J3,1,Pin_1*%
%TO.N,+15V*%
X126385000Y-105730000D03*
D17*
%TO.P,J3,2,Pin_2*%
%TO.N,Earth*%
X126385000Y-108270000D03*
%TO.P,J3,3,Pin_3*%
%TO.N,-15V*%
X126385000Y-110810000D03*
%TD*%
D10*
%TO.P,R10,1*%
%TO.N,Net-(T1-SEC_2)*%
X161787500Y-110475000D03*
%TO.P,R10,2*%
%TO.N,Net-(J7-Pin_1)*%
X164712500Y-110475000D03*
%TD*%
D18*
%TO.P,C1,1*%
%TO.N,Net-(J1-Pin_1)*%
X131000000Y-84695000D03*
%TO.P,C1,2*%
%TO.N,Net-(J2-Pin_1)*%
X131000000Y-83145000D03*
%TD*%
D10*
%TO.P,R11,1*%
%TO.N,Net-(T1-SEC_2)*%
X161787500Y-116130000D03*
%TO.P,R11,2*%
%TO.N,Net-(J7-Pin_1)*%
X164712500Y-116130000D03*
%TD*%
D16*
%TO.P,J2,1,Pin_1*%
%TO.N,Net-(J2-Pin_1)*%
X131000000Y-78840000D03*
%TD*%
D10*
%TO.P,R5,1*%
%TO.N,Net-(T1-SEC_2)*%
X161787500Y-83985000D03*
%TO.P,R5,2*%
%TO.N,Net-(J7-Pin_1)*%
X164712500Y-83985000D03*
%TD*%
D19*
%TO.P,R1,1*%
%TO.N,Earth*%
X142895000Y-122240000D03*
%TO.P,R1,2*%
%TO.N,Input*%
X144545000Y-122240000D03*
%TD*%
D20*
%TO.P,C2,1*%
%TO.N,GND1*%
X150620000Y-84206250D03*
%TO.P,C2,2*%
%TO.N,Net-(U2-CAP{slash}2.5V)*%
X150620000Y-85756250D03*
%TD*%
D16*
%TO.P,J4,1,Pin_1*%
%TO.N,Input*%
X149245000Y-122240000D03*
%TD*%
D21*
%TO.P,T1,1,PRI_1*%
%TO.N,Net-(J8-Pin_1)*%
X165790000Y-66145000D03*
%TO.P,T1,2,NC_1*%
%TO.N,unconnected-(T1-NC_1-Pad2)*%
X163250000Y-66145000D03*
%TO.P,T1,3,PRI_2*%
%TO.N,Net-(J8-Pin_2)*%
X160710000Y-66145000D03*
%TO.P,T1,4,SEC_1*%
%TO.N,Net-(J7-Pin_2)*%
X160710000Y-73765000D03*
%TO.P,T1,5,NC_2*%
%TO.N,unconnected-(T1-NC_2-Pad5)*%
X163250000Y-73765000D03*
%TO.P,T1,6,SEC_2*%
%TO.N,Net-(T1-SEC_2)*%
X165790000Y-73765000D03*
%TD*%
D20*
%TO.P,C4,1*%
%TO.N,GND1*%
X145890000Y-63651250D03*
%TO.P,C4,2*%
%TO.N,Net-(J6-Pin_1)*%
X145890000Y-65201250D03*
%TD*%
D16*
%TO.P,J7,1,Pin_1*%
%TO.N,Net-(J7-Pin_1)*%
X167060000Y-131550000D03*
D17*
%TO.P,J7,2,Pin_2*%
%TO.N,Net-(J7-Pin_2)*%
X164520000Y-131550000D03*
%TD*%
D10*
%TO.P,R13,1*%
%TO.N,Net-(T1-SEC_2)*%
X161787500Y-126515000D03*
%TO.P,R13,2*%
%TO.N,Net-(J7-Pin_1)*%
X164712500Y-126515000D03*
%TD*%
D16*
%TO.P,J8,1,Pin_1*%
%TO.N,Net-(J8-Pin_1)*%
X164520000Y-62335000D03*
D17*
%TO.P,J8,2,Pin_2*%
%TO.N,Net-(J8-Pin_2)*%
X161980000Y-62335000D03*
%TD*%
D22*
%TO.P,R2,1*%
%TO.N,Net-(U1--)*%
X148165000Y-94935000D03*
%TO.P,R2,2*%
%TO.N,Earth*%
X146515000Y-94935000D03*
%TD*%
D23*
%TO.P,X1,1,Tri-State*%
%TO.N,Net-(J6-Pin_1)*%
X151665000Y-75376250D03*
%TO.P,X1,2,GND*%
%TO.N,GND1*%
X145765000Y-75376250D03*
%TO.P,X1,3,OUT*%
%TO.N,Net-(U2-MCLK)*%
X145765000Y-78076250D03*
%TO.P,X1,4,VDD*%
%TO.N,Net-(J6-Pin_1)*%
X151665000Y-78076250D03*
%TD*%
D24*
%TO.P,U1,1*%
%TO.N,N/C*%
X146670000Y-117285000D03*
%TO.P,U1,2,-*%
%TO.N,Net-(U1--)*%
X147940000Y-117285000D03*
%TO.P,U1,3,+*%
%TO.N,Input*%
X149210000Y-117285000D03*
%TO.P,U1,4,V-*%
%TO.N,-15V*%
X150480000Y-117285000D03*
%TO.P,U1,5*%
%TO.N,N/C*%
X150480000Y-111885000D03*
%TO.P,U1,6*%
%TO.N,Output*%
X149210000Y-111885000D03*
%TO.P,U1,7,V+*%
%TO.N,+15V*%
X147940000Y-111885000D03*
%TO.P,U1,8*%
%TO.N,N/C*%
X146670000Y-111885000D03*
D25*
%TO.P,U1,9*%
X146775000Y-115185000D03*
X147975000Y-115185000D03*
X149275000Y-115185000D03*
X150375000Y-115185000D03*
D26*
X148575000Y-114585000D03*
D27*
X148575000Y-114585000D03*
D25*
X146775000Y-113985000D03*
X147975000Y-113985000D03*
X149275000Y-113985000D03*
X150375000Y-113985000D03*
%TD*%
D16*
%TO.P,J1,1,Pin_1*%
%TO.N,Net-(J1-Pin_1)*%
X131000000Y-89000000D03*
%TD*%
D10*
%TO.P,R9,1*%
%TO.N,Net-(T1-SEC_2)*%
X161787500Y-104935000D03*
%TO.P,R9,2*%
%TO.N,Net-(J7-Pin_1)*%
X164712500Y-104935000D03*
%TD*%
D16*
%TO.P,J5,1,Pin_1*%
%TO.N,Output*%
X152000000Y-107000000D03*
%TD*%
D12*
%TO.P,C8,1*%
%TO.N,Earth*%
X135275000Y-110735000D03*
%TO.P,C8,2*%
%TO.N,-15V*%
X135275000Y-117235000D03*
%TD*%
D13*
%TO.P,C5,1*%
%TO.N,Net-(J6-Pin_1)*%
X152665000Y-89426250D03*
%TO.P,C5,2*%
%TO.N,Net-(U2-COMP)*%
X151115000Y-89426250D03*
%TD*%
D16*
%TO.P,J6,1,Pin_1*%
%TO.N,Net-(J6-Pin_1)*%
X150620000Y-68471250D03*
D17*
%TO.P,J6,2,Pin_2*%
%TO.N,GND1*%
X148080000Y-68471250D03*
%TO.P,J6,3,Pin_3*%
%TO.N,Net-(J6-Pin_3)*%
X145540000Y-68471250D03*
%TO.P,J6,4,Pin_4*%
%TO.N,Net-(J6-Pin_4)*%
X143000000Y-68471250D03*
%TO.P,J6,5,Pin_5*%
%TO.N,Net-(J6-Pin_5)*%
X140460000Y-68471250D03*
%TO.P,J6,6,Pin_6*%
%TO.N,Net-(J6-Pin_6)*%
X137920000Y-68471250D03*
%TD*%
D28*
%TO.N,Net-(U1--)*%
X144800000Y-102555000D03*
X147975000Y-98745000D03*
%TD*%
D29*
%TO.N,Net-(J1-Pin_1)*%
X131000000Y-84695000D02*
X131000000Y-89000000D01*
%TO.N,Net-(J2-Pin_1)*%
X131000000Y-78840000D02*
X131000000Y-83145000D01*
%TO.N,Net-(U2-CAP{slash}2.5V)*%
X147287500Y-85188750D02*
X150052500Y-85188750D01*
X150052500Y-85188750D02*
X150620000Y-85756250D01*
%TO.N,GND1*%
X147287500Y-84688750D02*
X148150432Y-84688750D01*
X143975432Y-85688750D02*
X144975432Y-84688750D01*
X150795000Y-63651250D02*
X150970000Y-63476250D01*
X148080000Y-68471250D02*
X145765000Y-70786250D01*
X144765000Y-66376250D02*
X147765000Y-66376250D01*
X144490000Y-63651250D02*
X143765000Y-64376250D01*
X145890000Y-63651250D02*
X144490000Y-63651250D01*
X144975432Y-84688750D02*
X147287500Y-84688750D01*
X143062500Y-85688750D02*
X143975432Y-85688750D01*
X150480000Y-80091250D02*
X148867500Y-78478750D01*
X150480000Y-81171250D02*
X150480000Y-80091250D01*
X149102068Y-84206250D02*
X148867500Y-83971682D01*
X148867500Y-78478750D02*
X145765000Y-75376250D01*
X145890000Y-63651250D02*
X150795000Y-63651250D01*
X148150432Y-84688750D02*
X148867500Y-83971682D01*
X150620000Y-84206250D02*
X149102068Y-84206250D01*
X147765000Y-66376250D02*
X148080000Y-66691250D01*
X143765000Y-65376250D02*
X144765000Y-66376250D01*
X143765000Y-64376250D02*
X143765000Y-65376250D01*
X148080000Y-66691250D02*
X148080000Y-68471250D01*
X145765000Y-70786250D02*
X145765000Y-75376250D01*
X148867500Y-83971682D02*
X148867500Y-78478750D01*
X145750000Y-63791250D02*
X145890000Y-63651250D01*
%TO.N,Net-(J6-Pin_1)*%
X151665000Y-80806250D02*
X152030000Y-81171250D01*
X153160000Y-88156250D02*
X152665000Y-88651250D01*
X147287500Y-85688750D02*
X148350432Y-85688750D01*
X151665000Y-78076250D02*
X151665000Y-75376250D01*
X146560000Y-65376250D02*
X150970000Y-65376250D01*
X151665000Y-69516250D02*
X150620000Y-68471250D01*
X148350432Y-85688750D02*
X149350000Y-86688318D01*
X151665000Y-78076250D02*
X151665000Y-80806250D01*
X153160000Y-71011250D02*
X151665000Y-69516250D01*
X149350000Y-86688318D02*
X149350000Y-87521250D01*
X153160000Y-87521250D02*
X153160000Y-71011250D01*
X150970000Y-65376250D02*
X150970000Y-68121250D01*
X150620000Y-68471250D02*
X150620000Y-67836250D01*
X145890000Y-65201250D02*
X146385000Y-65201250D01*
X152665000Y-88651250D02*
X152665000Y-89426250D01*
X150970000Y-68121250D02*
X150620000Y-68471250D01*
X151665000Y-75376250D02*
X151665000Y-69516250D01*
X146385000Y-65201250D02*
X146560000Y-65376250D01*
X149350000Y-87521250D02*
X153160000Y-87521250D01*
X153160000Y-87521250D02*
X153160000Y-88156250D01*
%TO.N,Net-(U2-COMP)*%
X147287500Y-87363750D02*
X149350000Y-89426250D01*
X149350000Y-89426250D02*
X151115000Y-89426250D01*
X147287500Y-86188750D02*
X147287500Y-87363750D01*
%TO.N,+15V*%
X144725000Y-98670000D02*
X147975000Y-101920000D01*
X133445000Y-98670000D02*
X135275000Y-98670000D01*
X147975000Y-101920000D02*
X147940000Y-101955000D01*
X135275000Y-98670000D02*
X144725000Y-98670000D01*
X126385000Y-105730000D02*
X133445000Y-98670000D01*
X147940000Y-101955000D02*
X147940000Y-111885000D01*
%TO.N,Earth*%
X135275000Y-108270000D02*
X135275000Y-105170000D01*
X142895000Y-118355000D02*
X135275000Y-110735000D01*
X123845000Y-108270000D02*
X126385000Y-108270000D01*
X123845000Y-102555000D02*
X123845000Y-108270000D01*
X131465000Y-94935000D02*
X123845000Y-102555000D01*
X126385000Y-108270000D02*
X135275000Y-108270000D01*
X146515000Y-94935000D02*
X131465000Y-94935000D01*
X135275000Y-110735000D02*
X135275000Y-108270000D01*
X142895000Y-122240000D02*
X142895000Y-118355000D01*
%TO.N,-15V*%
X135275000Y-118430000D02*
X135275000Y-117235000D01*
X152420000Y-120335000D02*
X152420000Y-124145000D01*
X132810000Y-117235000D02*
X135275000Y-117235000D01*
X150480000Y-118395000D02*
X152420000Y-120335000D01*
X150480000Y-117285000D02*
X150480000Y-118395000D01*
X152420000Y-124145000D02*
X151150000Y-125415000D01*
X126385000Y-110810000D02*
X132810000Y-117235000D01*
X151150000Y-125415000D02*
X142260000Y-125415000D01*
X142260000Y-125415000D02*
X135275000Y-118430000D01*
%TO.N,Input*%
X149245000Y-122240000D02*
X149245000Y-117320000D01*
X144545000Y-122240000D02*
X149245000Y-122240000D01*
X149245000Y-117320000D02*
X149210000Y-117285000D01*
%TO.N,Output*%
X149210000Y-108940000D02*
X151150000Y-107000000D01*
X151150000Y-102430000D02*
X151150000Y-107000000D01*
X149210000Y-111885000D02*
X149210000Y-108940000D01*
%TO.N,Net-(J6-Pin_5)*%
X140460000Y-68471250D02*
X140460000Y-83514868D01*
X140460000Y-83514868D02*
X142133882Y-85188750D01*
X142133882Y-85188750D02*
X143062500Y-85188750D01*
%TO.N,Net-(J6-Pin_4)*%
X141950000Y-84439182D02*
X142199568Y-84688750D01*
X141950000Y-69521250D02*
X141950000Y-84439182D01*
X143000000Y-68471250D02*
X141950000Y-69521250D01*
X142199568Y-84688750D02*
X143062500Y-84688750D01*
%TO.N,Net-(J6-Pin_3)*%
X143062500Y-70948750D02*
X143062500Y-84188750D01*
X145540000Y-68471250D02*
X143062500Y-70948750D01*
%TO.N,Net-(J6-Pin_6)*%
X137920000Y-68471250D02*
X137920000Y-81909182D01*
X142199568Y-86188750D02*
X143062500Y-86188750D01*
X137920000Y-81909182D02*
X142199568Y-86188750D01*
%TO.N,Net-(J7-Pin_2)*%
X157535000Y-76940000D02*
X160710000Y-73765000D01*
X157535000Y-128375000D02*
X157535000Y-76940000D01*
X160142919Y-128375000D02*
X157535000Y-128375000D01*
X163317919Y-131550000D02*
X160142919Y-128375000D01*
X164520000Y-131550000D02*
X163317919Y-131550000D01*
%TO.N,Net-(J7-Pin_1)*%
X167875000Y-116130000D02*
X168330000Y-115675000D01*
X168330000Y-99800000D02*
X168330000Y-104880000D01*
X168330000Y-115675000D02*
X168330000Y-121390000D01*
X168330000Y-89005000D02*
X168330000Y-94085000D01*
X168330000Y-94085000D02*
X168330000Y-99800000D01*
X168040000Y-99510000D02*
X168330000Y-99800000D01*
X168330000Y-126470000D02*
X168285000Y-126515000D01*
X164712500Y-121265000D02*
X168205000Y-121265000D01*
X164712500Y-89005000D02*
X168330000Y-89005000D01*
X168330000Y-78845000D02*
X168330000Y-83925000D01*
X168205000Y-121265000D02*
X168330000Y-121390000D01*
X164712500Y-94200000D02*
X168215000Y-94200000D01*
X168330000Y-110595000D02*
X168330000Y-115675000D01*
X167060000Y-126515000D02*
X164712500Y-126515000D01*
X164712500Y-110475000D02*
X168210000Y-110475000D01*
X164712500Y-99510000D02*
X168040000Y-99510000D01*
X168330000Y-104880000D02*
X168330000Y-110595000D01*
X168215000Y-94200000D02*
X168330000Y-94085000D01*
X164712500Y-104935000D02*
X168275000Y-104935000D01*
X164712500Y-78845000D02*
X168330000Y-78845000D01*
X168285000Y-126515000D02*
X167060000Y-126515000D01*
X168330000Y-83925000D02*
X168330000Y-89005000D01*
X167060000Y-126515000D02*
X167060000Y-131550000D01*
X168270000Y-83985000D02*
X168330000Y-83925000D01*
X168210000Y-110475000D02*
X168330000Y-110595000D01*
X164712500Y-83985000D02*
X168270000Y-83985000D01*
X168275000Y-104935000D02*
X168330000Y-104880000D01*
X168330000Y-121390000D02*
X168330000Y-126470000D01*
X164712500Y-116130000D02*
X167875000Y-116130000D01*
%TO.N,Net-(J8-Pin_1)*%
X164520000Y-62335000D02*
X165790000Y-63605000D01*
X165790000Y-63605000D02*
X165790000Y-66145000D01*
%TO.N,Net-(J8-Pin_2)*%
X161980000Y-62335000D02*
X160710000Y-63605000D01*
X160710000Y-63605000D02*
X160710000Y-66145000D01*
%TO.N,Net-(U1--)*%
X149975000Y-96745000D02*
X148165000Y-94935000D01*
X151150000Y-101410000D02*
X151150000Y-97920000D01*
X151150000Y-97920000D02*
X149975000Y-96745000D01*
X147340000Y-119700000D02*
X145435000Y-119700000D01*
X145435000Y-119700000D02*
X144800000Y-119065000D01*
X147940000Y-117285000D02*
X147940000Y-119100000D01*
X147940000Y-119100000D02*
X147340000Y-119700000D01*
X147975000Y-98745000D02*
X149975000Y-96745000D01*
X144800000Y-119065000D02*
X144800000Y-102555000D01*
%TO.N,Net-(T1-SEC_2)*%
X158805000Y-83925000D02*
X158805000Y-89005000D01*
X158985000Y-116130000D02*
X158805000Y-116310000D01*
X161787500Y-89005000D02*
X158805000Y-89005000D01*
X158805000Y-76940000D02*
X158805000Y-78845000D01*
X158805000Y-126470000D02*
X158850000Y-126515000D01*
X161787500Y-121265000D02*
X158930000Y-121265000D01*
X165790000Y-73765000D02*
X162615000Y-76940000D01*
X158930000Y-121265000D02*
X158805000Y-121390000D01*
X158805000Y-121390000D02*
X158805000Y-126470000D01*
X158850000Y-126515000D02*
X161787500Y-126515000D01*
X158805000Y-99800000D02*
X158805000Y-104880000D01*
X158805000Y-94085000D02*
X158805000Y-99800000D01*
X158920000Y-94200000D02*
X158805000Y-94085000D01*
X159095000Y-99510000D02*
X158805000Y-99800000D01*
X161787500Y-116130000D02*
X158985000Y-116130000D01*
X161787500Y-104935000D02*
X158860000Y-104935000D01*
X158925000Y-110475000D02*
X158805000Y-110595000D01*
X161787500Y-99510000D02*
X159095000Y-99510000D01*
X158805000Y-104880000D02*
X158805000Y-110595000D01*
X161787500Y-110475000D02*
X158925000Y-110475000D01*
X158805000Y-116310000D02*
X158805000Y-121390000D01*
X158865000Y-83985000D02*
X158805000Y-83925000D01*
X158805000Y-110595000D02*
X158805000Y-116310000D01*
X158860000Y-104935000D02*
X158805000Y-104880000D01*
X158805000Y-89005000D02*
X158805000Y-94085000D01*
X161787500Y-83985000D02*
X158865000Y-83985000D01*
X158805000Y-78845000D02*
X158805000Y-83925000D01*
X161787500Y-94200000D02*
X158920000Y-94200000D01*
X162615000Y-76940000D02*
X158805000Y-76940000D01*
X161787500Y-78845000D02*
X158805000Y-78845000D01*
%TO.N,Net-(U2-MCLK)*%
X145765000Y-82666250D02*
X147287500Y-84188750D01*
X145765000Y-78076250D02*
X145765000Y-82666250D01*
%TD*%
M02*
