%TF.GenerationSoftware,KiCad,Pcbnew,8.0.4*%
%TF.CreationDate,2024-08-18T15:43:04+02:00*%
%TF.ProjectId,megaboard-01,6d656761-626f-4617-9264-2d30312e6b69,rev?*%
%TF.SameCoordinates,Original*%
%TF.FileFunction,Paste,Top*%
%TF.FilePolarity,Positive*%
%FSLAX46Y46*%
G04 Gerber Fmt 4.6, Leading zero omitted, Abs format (unit mm)*
G04 Created by KiCad (PCBNEW 8.0.4) date 2024-08-18 15:43:04*
%MOMM*%
%LPD*%
G01*
G04 APERTURE LIST*
G04 Aperture macros list*
%AMRoundRect*
0 Rectangle with rounded corners*
0 $1 Rounding radius*
0 $2 $3 $4 $5 $6 $7 $8 $9 X,Y pos of 4 corners*
0 Add a 4 corners polygon primitive as box body*
4,1,4,$2,$3,$4,$5,$6,$7,$8,$9,$2,$3,0*
0 Add four circle primitives for the rounded corners*
1,1,$1+$1,$2,$3*
1,1,$1+$1,$4,$5*
1,1,$1+$1,$6,$7*
1,1,$1+$1,$8,$9*
0 Add four rect primitives between the rounded corners*
20,1,$1+$1,$2,$3,$4,$5,0*
20,1,$1+$1,$4,$5,$6,$7,0*
20,1,$1+$1,$6,$7,$8,$9,0*
20,1,$1+$1,$8,$9,$2,$3,0*%
G04 Aperture macros list end*
%ADD10RoundRect,0.250000X-0.312500X-0.625000X0.312500X-0.625000X0.312500X0.625000X-0.312500X0.625000X0*%
%ADD11RoundRect,0.135000X-0.185000X0.135000X-0.185000X-0.135000X0.185000X-0.135000X0.185000X0.135000X0*%
%ADD12RoundRect,0.250000X-1.000000X1.500000X-1.000000X-1.500000X1.000000X-1.500000X1.000000X1.500000X0*%
%ADD13RoundRect,0.225000X0.225000X0.250000X-0.225000X0.250000X-0.225000X-0.250000X0.225000X-0.250000X0*%
%ADD14RoundRect,0.250000X-0.475000X0.250000X-0.475000X-0.250000X0.475000X-0.250000X0.475000X0.250000X0*%
%ADD15RoundRect,0.087500X0.725000X0.087500X-0.725000X0.087500X-0.725000X-0.087500X0.725000X-0.087500X0*%
%ADD16RoundRect,0.225000X0.250000X-0.225000X0.250000X0.225000X-0.250000X0.225000X-0.250000X-0.225000X0*%
%ADD17RoundRect,0.200000X-0.200000X-0.275000X0.200000X-0.275000X0.200000X0.275000X-0.200000X0.275000X0*%
%ADD18RoundRect,0.225000X-0.250000X0.225000X-0.250000X-0.225000X0.250000X-0.225000X0.250000X0.225000X0*%
%ADD19RoundRect,0.200000X0.200000X0.275000X-0.200000X0.275000X-0.200000X-0.275000X0.200000X-0.275000X0*%
%ADD20R,2.100000X1.700000*%
%ADD21R,0.600000X1.550000*%
%ADD22R,3.100000X2.600000*%
G04 APERTURE END LIST*
D10*
%TO.C,R8*%
X161787500Y-99510000D03*
X164712500Y-99510000D03*
%TD*%
D11*
%TO.C,R3*%
X151150000Y-101410000D03*
X151150000Y-102430000D03*
%TD*%
D10*
%TO.C,R6*%
X161787500Y-89005000D03*
X164712500Y-89005000D03*
%TD*%
D12*
%TO.C,C7*%
X135275000Y-98670000D03*
X135275000Y-105170000D03*
%TD*%
D10*
%TO.C,R12*%
X161787500Y-121265000D03*
X164712500Y-121265000D03*
%TD*%
D13*
%TO.C,C6*%
X152030000Y-81171250D03*
X150480000Y-81171250D03*
%TD*%
D14*
%TO.C,C3*%
X150970000Y-63476250D03*
X150970000Y-65376250D03*
%TD*%
D10*
%TO.C,R4*%
X161787500Y-78845000D03*
X164712500Y-78845000D03*
%TD*%
%TO.C,R7*%
X161787500Y-94200000D03*
X164712500Y-94200000D03*
%TD*%
D15*
%TO.C,U2*%
X147287500Y-86188750D03*
X147287500Y-85688750D03*
X147287500Y-85188750D03*
X147287500Y-84688750D03*
X147287500Y-84188750D03*
X143062500Y-84188750D03*
X143062500Y-84688750D03*
X143062500Y-85188750D03*
X143062500Y-85688750D03*
X143062500Y-86188750D03*
%TD*%
D10*
%TO.C,R10*%
X161787500Y-110475000D03*
X164712500Y-110475000D03*
%TD*%
D16*
%TO.C,C1*%
X131000000Y-84695000D03*
X131000000Y-83145000D03*
%TD*%
D10*
%TO.C,R11*%
X161787500Y-116130000D03*
X164712500Y-116130000D03*
%TD*%
%TO.C,R5*%
X161787500Y-83985000D03*
X164712500Y-83985000D03*
%TD*%
D17*
%TO.C,R1*%
X142895000Y-122240000D03*
X144545000Y-122240000D03*
%TD*%
D18*
%TO.C,C2*%
X150620000Y-84206250D03*
X150620000Y-85756250D03*
%TD*%
%TO.C,C4*%
X145890000Y-63651250D03*
X145890000Y-65201250D03*
%TD*%
D10*
%TO.C,R13*%
X161787500Y-126515000D03*
X164712500Y-126515000D03*
%TD*%
D19*
%TO.C,R2*%
X148165000Y-94935000D03*
X146515000Y-94935000D03*
%TD*%
D20*
%TO.C,X1*%
X151665000Y-75376250D03*
X145765000Y-75376250D03*
X145765000Y-78076250D03*
X151665000Y-78076250D03*
%TD*%
D21*
%TO.C,U1*%
X146670000Y-117285000D03*
X147940000Y-117285000D03*
X149210000Y-117285000D03*
X150480000Y-117285000D03*
X150480000Y-111885000D03*
X149210000Y-111885000D03*
X147940000Y-111885000D03*
X146670000Y-111885000D03*
D22*
X148575000Y-114585000D03*
%TD*%
D10*
%TO.C,R9*%
X161787500Y-104935000D03*
X164712500Y-104935000D03*
%TD*%
D12*
%TO.C,C8*%
X135275000Y-110735000D03*
X135275000Y-117235000D03*
%TD*%
D13*
%TO.C,C5*%
X152665000Y-89426250D03*
X151115000Y-89426250D03*
%TD*%
M02*
