%TF.GenerationSoftware,KiCad,Pcbnew,8.0.4*%
%TF.CreationDate,2024-08-18T15:43:04+02:00*%
%TF.ProjectId,megaboard-01,6d656761-626f-4617-9264-2d30312e6b69,rev?*%
%TF.SameCoordinates,Original*%
%TF.FileFunction,Legend,Top*%
%TF.FilePolarity,Positive*%
%FSLAX46Y46*%
G04 Gerber Fmt 4.6, Leading zero omitted, Abs format (unit mm)*
G04 Created by KiCad (PCBNEW 8.0.4) date 2024-08-18 15:43:04*
%MOMM*%
%LPD*%
G01*
G04 APERTURE LIST*
G04 Aperture macros list*
%AMRoundRect*
0 Rectangle with rounded corners*
0 $1 Rounding radius*
0 $2 $3 $4 $5 $6 $7 $8 $9 X,Y pos of 4 corners*
0 Add a 4 corners polygon primitive as box body*
4,1,4,$2,$3,$4,$5,$6,$7,$8,$9,$2,$3,0*
0 Add four circle primitives for the rounded corners*
1,1,$1+$1,$2,$3*
1,1,$1+$1,$4,$5*
1,1,$1+$1,$6,$7*
1,1,$1+$1,$8,$9*
0 Add four rect primitives between the rounded corners*
20,1,$1+$1,$2,$3,$4,$5,0*
20,1,$1+$1,$4,$5,$6,$7,0*
20,1,$1+$1,$6,$7,$8,$9,0*
20,1,$1+$1,$8,$9,$2,$3,0*%
G04 Aperture macros list end*
%ADD10C,0.100000*%
%ADD11C,0.150000*%
%ADD12C,0.254000*%
%ADD13C,0.120000*%
%ADD14C,0.200000*%
%ADD15RoundRect,0.250000X-0.312500X-0.625000X0.312500X-0.625000X0.312500X0.625000X-0.312500X0.625000X0*%
%ADD16RoundRect,0.135000X-0.185000X0.135000X-0.185000X-0.135000X0.185000X-0.135000X0.185000X0.135000X0*%
%ADD17RoundRect,0.250000X-1.000000X1.500000X-1.000000X-1.500000X1.000000X-1.500000X1.000000X1.500000X0*%
%ADD18RoundRect,0.225000X0.225000X0.250000X-0.225000X0.250000X-0.225000X-0.250000X0.225000X-0.250000X0*%
%ADD19RoundRect,0.250000X-0.475000X0.250000X-0.475000X-0.250000X0.475000X-0.250000X0.475000X0.250000X0*%
%ADD20RoundRect,0.087500X0.725000X0.087500X-0.725000X0.087500X-0.725000X-0.087500X0.725000X-0.087500X0*%
%ADD21R,1.700000X1.700000*%
%ADD22O,1.700000X1.700000*%
%ADD23RoundRect,0.225000X0.250000X-0.225000X0.250000X0.225000X-0.250000X0.225000X-0.250000X-0.225000X0*%
%ADD24RoundRect,0.200000X-0.200000X-0.275000X0.200000X-0.275000X0.200000X0.275000X-0.200000X0.275000X0*%
%ADD25RoundRect,0.225000X-0.250000X0.225000X-0.250000X-0.225000X0.250000X-0.225000X0.250000X0.225000X0*%
%ADD26C,1.173000*%
%ADD27RoundRect,0.200000X0.200000X0.275000X-0.200000X0.275000X-0.200000X-0.275000X0.200000X-0.275000X0*%
%ADD28R,2.100000X1.700000*%
%ADD29R,0.600000X1.550000*%
%ADD30R,3.100000X2.600000*%
G04 APERTURE END LIST*
D10*
X135000000Y-60000000D02*
X155000000Y-60000000D01*
X155000000Y-92000000D01*
X135000000Y-92000000D01*
X135000000Y-60000000D01*
X123000000Y-93000000D02*
X155000000Y-93000000D01*
X155000000Y-128000000D01*
X123000000Y-128000000D01*
X123000000Y-93000000D01*
X156000000Y-60000000D02*
X171000000Y-60000000D01*
X171000000Y-134000000D01*
X156000000Y-134000000D01*
X156000000Y-60000000D01*
X127000000Y-76000000D02*
X134000000Y-76000000D01*
X134000000Y-92000000D01*
X127000000Y-92000000D01*
X127000000Y-76000000D01*
X137021265Y-61962954D02*
X137497455Y-61962954D01*
X136926027Y-62248669D02*
X137259360Y-61248669D01*
X137259360Y-61248669D02*
X137592693Y-62248669D01*
X137926027Y-62248669D02*
X137926027Y-61248669D01*
X137926027Y-61248669D02*
X138164122Y-61248669D01*
X138164122Y-61248669D02*
X138306979Y-61296288D01*
X138306979Y-61296288D02*
X138402217Y-61391526D01*
X138402217Y-61391526D02*
X138449836Y-61486764D01*
X138449836Y-61486764D02*
X138497455Y-61677240D01*
X138497455Y-61677240D02*
X138497455Y-61820097D01*
X138497455Y-61820097D02*
X138449836Y-62010573D01*
X138449836Y-62010573D02*
X138402217Y-62105811D01*
X138402217Y-62105811D02*
X138306979Y-62201050D01*
X138306979Y-62201050D02*
X138164122Y-62248669D01*
X138164122Y-62248669D02*
X137926027Y-62248669D01*
X138973646Y-62248669D02*
X139164122Y-62248669D01*
X139164122Y-62248669D02*
X139259360Y-62201050D01*
X139259360Y-62201050D02*
X139306979Y-62153430D01*
X139306979Y-62153430D02*
X139402217Y-62010573D01*
X139402217Y-62010573D02*
X139449836Y-61820097D01*
X139449836Y-61820097D02*
X139449836Y-61439145D01*
X139449836Y-61439145D02*
X139402217Y-61343907D01*
X139402217Y-61343907D02*
X139354598Y-61296288D01*
X139354598Y-61296288D02*
X139259360Y-61248669D01*
X139259360Y-61248669D02*
X139068884Y-61248669D01*
X139068884Y-61248669D02*
X138973646Y-61296288D01*
X138973646Y-61296288D02*
X138926027Y-61343907D01*
X138926027Y-61343907D02*
X138878408Y-61439145D01*
X138878408Y-61439145D02*
X138878408Y-61677240D01*
X138878408Y-61677240D02*
X138926027Y-61772478D01*
X138926027Y-61772478D02*
X138973646Y-61820097D01*
X138973646Y-61820097D02*
X139068884Y-61867716D01*
X139068884Y-61867716D02*
X139259360Y-61867716D01*
X139259360Y-61867716D02*
X139354598Y-61820097D01*
X139354598Y-61820097D02*
X139402217Y-61772478D01*
X139402217Y-61772478D02*
X139449836Y-61677240D01*
X140021265Y-61677240D02*
X139926027Y-61629621D01*
X139926027Y-61629621D02*
X139878408Y-61582002D01*
X139878408Y-61582002D02*
X139830789Y-61486764D01*
X139830789Y-61486764D02*
X139830789Y-61439145D01*
X139830789Y-61439145D02*
X139878408Y-61343907D01*
X139878408Y-61343907D02*
X139926027Y-61296288D01*
X139926027Y-61296288D02*
X140021265Y-61248669D01*
X140021265Y-61248669D02*
X140211741Y-61248669D01*
X140211741Y-61248669D02*
X140306979Y-61296288D01*
X140306979Y-61296288D02*
X140354598Y-61343907D01*
X140354598Y-61343907D02*
X140402217Y-61439145D01*
X140402217Y-61439145D02*
X140402217Y-61486764D01*
X140402217Y-61486764D02*
X140354598Y-61582002D01*
X140354598Y-61582002D02*
X140306979Y-61629621D01*
X140306979Y-61629621D02*
X140211741Y-61677240D01*
X140211741Y-61677240D02*
X140021265Y-61677240D01*
X140021265Y-61677240D02*
X139926027Y-61724859D01*
X139926027Y-61724859D02*
X139878408Y-61772478D01*
X139878408Y-61772478D02*
X139830789Y-61867716D01*
X139830789Y-61867716D02*
X139830789Y-62058192D01*
X139830789Y-62058192D02*
X139878408Y-62153430D01*
X139878408Y-62153430D02*
X139926027Y-62201050D01*
X139926027Y-62201050D02*
X140021265Y-62248669D01*
X140021265Y-62248669D02*
X140211741Y-62248669D01*
X140211741Y-62248669D02*
X140306979Y-62201050D01*
X140306979Y-62201050D02*
X140354598Y-62153430D01*
X140354598Y-62153430D02*
X140402217Y-62058192D01*
X140402217Y-62058192D02*
X140402217Y-61867716D01*
X140402217Y-61867716D02*
X140354598Y-61772478D01*
X140354598Y-61772478D02*
X140306979Y-61724859D01*
X140306979Y-61724859D02*
X140211741Y-61677240D01*
X140735551Y-61248669D02*
X141354598Y-61248669D01*
X141354598Y-61248669D02*
X141021265Y-61629621D01*
X141021265Y-61629621D02*
X141164122Y-61629621D01*
X141164122Y-61629621D02*
X141259360Y-61677240D01*
X141259360Y-61677240D02*
X141306979Y-61724859D01*
X141306979Y-61724859D02*
X141354598Y-61820097D01*
X141354598Y-61820097D02*
X141354598Y-62058192D01*
X141354598Y-62058192D02*
X141306979Y-62153430D01*
X141306979Y-62153430D02*
X141259360Y-62201050D01*
X141259360Y-62201050D02*
X141164122Y-62248669D01*
X141164122Y-62248669D02*
X140878408Y-62248669D01*
X140878408Y-62248669D02*
X140783170Y-62201050D01*
X140783170Y-62201050D02*
X140735551Y-62153430D01*
X141687932Y-61248669D02*
X142306979Y-61248669D01*
X142306979Y-61248669D02*
X141973646Y-61629621D01*
X141973646Y-61629621D02*
X142116503Y-61629621D01*
X142116503Y-61629621D02*
X142211741Y-61677240D01*
X142211741Y-61677240D02*
X142259360Y-61724859D01*
X142259360Y-61724859D02*
X142306979Y-61820097D01*
X142306979Y-61820097D02*
X142306979Y-62058192D01*
X142306979Y-62058192D02*
X142259360Y-62153430D01*
X142259360Y-62153430D02*
X142211741Y-62201050D01*
X142211741Y-62201050D02*
X142116503Y-62248669D01*
X142116503Y-62248669D02*
X141830789Y-62248669D01*
X141830789Y-62248669D02*
X141735551Y-62201050D01*
X141735551Y-62201050D02*
X141687932Y-62153430D01*
X143830789Y-61724859D02*
X143973646Y-61772478D01*
X143973646Y-61772478D02*
X144021265Y-61820097D01*
X144021265Y-61820097D02*
X144068884Y-61915335D01*
X144068884Y-61915335D02*
X144068884Y-62058192D01*
X144068884Y-62058192D02*
X144021265Y-62153430D01*
X144021265Y-62153430D02*
X143973646Y-62201050D01*
X143973646Y-62201050D02*
X143878408Y-62248669D01*
X143878408Y-62248669D02*
X143497456Y-62248669D01*
X143497456Y-62248669D02*
X143497456Y-61248669D01*
X143497456Y-61248669D02*
X143830789Y-61248669D01*
X143830789Y-61248669D02*
X143926027Y-61296288D01*
X143926027Y-61296288D02*
X143973646Y-61343907D01*
X143973646Y-61343907D02*
X144021265Y-61439145D01*
X144021265Y-61439145D02*
X144021265Y-61534383D01*
X144021265Y-61534383D02*
X143973646Y-61629621D01*
X143973646Y-61629621D02*
X143926027Y-61677240D01*
X143926027Y-61677240D02*
X143830789Y-61724859D01*
X143830789Y-61724859D02*
X143497456Y-61724859D01*
X144687932Y-61248669D02*
X144878408Y-61248669D01*
X144878408Y-61248669D02*
X144973646Y-61296288D01*
X144973646Y-61296288D02*
X145068884Y-61391526D01*
X145068884Y-61391526D02*
X145116503Y-61582002D01*
X145116503Y-61582002D02*
X145116503Y-61915335D01*
X145116503Y-61915335D02*
X145068884Y-62105811D01*
X145068884Y-62105811D02*
X144973646Y-62201050D01*
X144973646Y-62201050D02*
X144878408Y-62248669D01*
X144878408Y-62248669D02*
X144687932Y-62248669D01*
X144687932Y-62248669D02*
X144592694Y-62201050D01*
X144592694Y-62201050D02*
X144497456Y-62105811D01*
X144497456Y-62105811D02*
X144449837Y-61915335D01*
X144449837Y-61915335D02*
X144449837Y-61582002D01*
X144449837Y-61582002D02*
X144497456Y-61391526D01*
X144497456Y-61391526D02*
X144592694Y-61296288D01*
X144592694Y-61296288D02*
X144687932Y-61248669D01*
X145497456Y-61962954D02*
X145973646Y-61962954D01*
X145402218Y-62248669D02*
X145735551Y-61248669D01*
X145735551Y-61248669D02*
X146068884Y-62248669D01*
X146973646Y-62248669D02*
X146640313Y-61772478D01*
X146402218Y-62248669D02*
X146402218Y-61248669D01*
X146402218Y-61248669D02*
X146783170Y-61248669D01*
X146783170Y-61248669D02*
X146878408Y-61296288D01*
X146878408Y-61296288D02*
X146926027Y-61343907D01*
X146926027Y-61343907D02*
X146973646Y-61439145D01*
X146973646Y-61439145D02*
X146973646Y-61582002D01*
X146973646Y-61582002D02*
X146926027Y-61677240D01*
X146926027Y-61677240D02*
X146878408Y-61724859D01*
X146878408Y-61724859D02*
X146783170Y-61772478D01*
X146783170Y-61772478D02*
X146402218Y-61772478D01*
X147402218Y-62248669D02*
X147402218Y-61248669D01*
X147402218Y-61248669D02*
X147640313Y-61248669D01*
X147640313Y-61248669D02*
X147783170Y-61296288D01*
X147783170Y-61296288D02*
X147878408Y-61391526D01*
X147878408Y-61391526D02*
X147926027Y-61486764D01*
X147926027Y-61486764D02*
X147973646Y-61677240D01*
X147973646Y-61677240D02*
X147973646Y-61820097D01*
X147973646Y-61820097D02*
X147926027Y-62010573D01*
X147926027Y-62010573D02*
X147878408Y-62105811D01*
X147878408Y-62105811D02*
X147783170Y-62201050D01*
X147783170Y-62201050D02*
X147640313Y-62248669D01*
X147640313Y-62248669D02*
X147402218Y-62248669D01*
X125926265Y-121871704D02*
X126402455Y-121871704D01*
X125831027Y-122157419D02*
X126164360Y-121157419D01*
X126164360Y-121157419D02*
X126497693Y-122157419D01*
X126831027Y-122157419D02*
X126831027Y-121157419D01*
X126831027Y-121157419D02*
X127164360Y-121871704D01*
X127164360Y-121871704D02*
X127497693Y-121157419D01*
X127497693Y-121157419D02*
X127497693Y-122157419D01*
X127973884Y-122157419D02*
X127973884Y-121157419D01*
X127973884Y-121157419D02*
X128354836Y-121157419D01*
X128354836Y-121157419D02*
X128450074Y-121205038D01*
X128450074Y-121205038D02*
X128497693Y-121252657D01*
X128497693Y-121252657D02*
X128545312Y-121347895D01*
X128545312Y-121347895D02*
X128545312Y-121490752D01*
X128545312Y-121490752D02*
X128497693Y-121585990D01*
X128497693Y-121585990D02*
X128450074Y-121633609D01*
X128450074Y-121633609D02*
X128354836Y-121681228D01*
X128354836Y-121681228D02*
X127973884Y-121681228D01*
X129450074Y-122157419D02*
X128973884Y-122157419D01*
X128973884Y-122157419D02*
X128973884Y-121157419D01*
X129783408Y-122157419D02*
X129783408Y-121157419D01*
X130592931Y-121633609D02*
X130259598Y-121633609D01*
X130259598Y-122157419D02*
X130259598Y-121157419D01*
X130259598Y-121157419D02*
X130735788Y-121157419D01*
X131116741Y-122157419D02*
X131116741Y-121157419D01*
X132164359Y-122062180D02*
X132116740Y-122109800D01*
X132116740Y-122109800D02*
X131973883Y-122157419D01*
X131973883Y-122157419D02*
X131878645Y-122157419D01*
X131878645Y-122157419D02*
X131735788Y-122109800D01*
X131735788Y-122109800D02*
X131640550Y-122014561D01*
X131640550Y-122014561D02*
X131592931Y-121919323D01*
X131592931Y-121919323D02*
X131545312Y-121728847D01*
X131545312Y-121728847D02*
X131545312Y-121585990D01*
X131545312Y-121585990D02*
X131592931Y-121395514D01*
X131592931Y-121395514D02*
X131640550Y-121300276D01*
X131640550Y-121300276D02*
X131735788Y-121205038D01*
X131735788Y-121205038D02*
X131878645Y-121157419D01*
X131878645Y-121157419D02*
X131973883Y-121157419D01*
X131973883Y-121157419D02*
X132116740Y-121205038D01*
X132116740Y-121205038D02*
X132164359Y-121252657D01*
X132545312Y-121871704D02*
X133021502Y-121871704D01*
X132450074Y-122157419D02*
X132783407Y-121157419D01*
X132783407Y-121157419D02*
X133116740Y-122157419D01*
X133307217Y-121157419D02*
X133878645Y-121157419D01*
X133592931Y-122157419D02*
X133592931Y-121157419D01*
X134211979Y-122157419D02*
X134211979Y-121157419D01*
X134878645Y-121157419D02*
X135069121Y-121157419D01*
X135069121Y-121157419D02*
X135164359Y-121205038D01*
X135164359Y-121205038D02*
X135259597Y-121300276D01*
X135259597Y-121300276D02*
X135307216Y-121490752D01*
X135307216Y-121490752D02*
X135307216Y-121824085D01*
X135307216Y-121824085D02*
X135259597Y-122014561D01*
X135259597Y-122014561D02*
X135164359Y-122109800D01*
X135164359Y-122109800D02*
X135069121Y-122157419D01*
X135069121Y-122157419D02*
X134878645Y-122157419D01*
X134878645Y-122157419D02*
X134783407Y-122109800D01*
X134783407Y-122109800D02*
X134688169Y-122014561D01*
X134688169Y-122014561D02*
X134640550Y-121824085D01*
X134640550Y-121824085D02*
X134640550Y-121490752D01*
X134640550Y-121490752D02*
X134688169Y-121300276D01*
X134688169Y-121300276D02*
X134783407Y-121205038D01*
X134783407Y-121205038D02*
X134878645Y-121157419D01*
X135735788Y-122157419D02*
X135735788Y-121157419D01*
X135735788Y-121157419D02*
X136307216Y-122157419D01*
X136307216Y-122157419D02*
X136307216Y-121157419D01*
X139635312Y-127027180D02*
X139587693Y-127074800D01*
X139587693Y-127074800D02*
X139444836Y-127122419D01*
X139444836Y-127122419D02*
X139349598Y-127122419D01*
X139349598Y-127122419D02*
X139206741Y-127074800D01*
X139206741Y-127074800D02*
X139111503Y-126979561D01*
X139111503Y-126979561D02*
X139063884Y-126884323D01*
X139063884Y-126884323D02*
X139016265Y-126693847D01*
X139016265Y-126693847D02*
X139016265Y-126550990D01*
X139016265Y-126550990D02*
X139063884Y-126360514D01*
X139063884Y-126360514D02*
X139111503Y-126265276D01*
X139111503Y-126265276D02*
X139206741Y-126170038D01*
X139206741Y-126170038D02*
X139349598Y-126122419D01*
X139349598Y-126122419D02*
X139444836Y-126122419D01*
X139444836Y-126122419D02*
X139587693Y-126170038D01*
X139587693Y-126170038D02*
X139635312Y-126217657D01*
X140254360Y-126122419D02*
X140444836Y-126122419D01*
X140444836Y-126122419D02*
X140540074Y-126170038D01*
X140540074Y-126170038D02*
X140635312Y-126265276D01*
X140635312Y-126265276D02*
X140682931Y-126455752D01*
X140682931Y-126455752D02*
X140682931Y-126789085D01*
X140682931Y-126789085D02*
X140635312Y-126979561D01*
X140635312Y-126979561D02*
X140540074Y-127074800D01*
X140540074Y-127074800D02*
X140444836Y-127122419D01*
X140444836Y-127122419D02*
X140254360Y-127122419D01*
X140254360Y-127122419D02*
X140159122Y-127074800D01*
X140159122Y-127074800D02*
X140063884Y-126979561D01*
X140063884Y-126979561D02*
X140016265Y-126789085D01*
X140016265Y-126789085D02*
X140016265Y-126455752D01*
X140016265Y-126455752D02*
X140063884Y-126265276D01*
X140063884Y-126265276D02*
X140159122Y-126170038D01*
X140159122Y-126170038D02*
X140254360Y-126122419D01*
X141111503Y-126122419D02*
X141111503Y-126931942D01*
X141111503Y-126931942D02*
X141159122Y-127027180D01*
X141159122Y-127027180D02*
X141206741Y-127074800D01*
X141206741Y-127074800D02*
X141301979Y-127122419D01*
X141301979Y-127122419D02*
X141492455Y-127122419D01*
X141492455Y-127122419D02*
X141587693Y-127074800D01*
X141587693Y-127074800D02*
X141635312Y-127027180D01*
X141635312Y-127027180D02*
X141682931Y-126931942D01*
X141682931Y-126931942D02*
X141682931Y-126122419D01*
X142159122Y-127122419D02*
X142159122Y-126122419D01*
X142159122Y-126122419D02*
X142540074Y-126122419D01*
X142540074Y-126122419D02*
X142635312Y-126170038D01*
X142635312Y-126170038D02*
X142682931Y-126217657D01*
X142682931Y-126217657D02*
X142730550Y-126312895D01*
X142730550Y-126312895D02*
X142730550Y-126455752D01*
X142730550Y-126455752D02*
X142682931Y-126550990D01*
X142682931Y-126550990D02*
X142635312Y-126598609D01*
X142635312Y-126598609D02*
X142540074Y-126646228D01*
X142540074Y-126646228D02*
X142159122Y-126646228D01*
X143635312Y-127122419D02*
X143159122Y-127122419D01*
X143159122Y-127122419D02*
X143159122Y-126122419D01*
X143968646Y-127122419D02*
X143968646Y-126122419D01*
X144444836Y-127122419D02*
X144444836Y-126122419D01*
X144444836Y-126122419D02*
X145016264Y-127122419D01*
X145016264Y-127122419D02*
X145016264Y-126122419D01*
X146016264Y-126170038D02*
X145921026Y-126122419D01*
X145921026Y-126122419D02*
X145778169Y-126122419D01*
X145778169Y-126122419D02*
X145635312Y-126170038D01*
X145635312Y-126170038D02*
X145540074Y-126265276D01*
X145540074Y-126265276D02*
X145492455Y-126360514D01*
X145492455Y-126360514D02*
X145444836Y-126550990D01*
X145444836Y-126550990D02*
X145444836Y-126693847D01*
X145444836Y-126693847D02*
X145492455Y-126884323D01*
X145492455Y-126884323D02*
X145540074Y-126979561D01*
X145540074Y-126979561D02*
X145635312Y-127074800D01*
X145635312Y-127074800D02*
X145778169Y-127122419D01*
X145778169Y-127122419D02*
X145873407Y-127122419D01*
X145873407Y-127122419D02*
X146016264Y-127074800D01*
X146016264Y-127074800D02*
X146063883Y-127027180D01*
X146063883Y-127027180D02*
X146063883Y-126693847D01*
X146063883Y-126693847D02*
X145873407Y-126693847D01*
X157872419Y-73619925D02*
X157872419Y-74096115D01*
X157872419Y-74096115D02*
X156872419Y-74096115D01*
X156872419Y-73096115D02*
X156872419Y-72905639D01*
X156872419Y-72905639D02*
X156920038Y-72810401D01*
X156920038Y-72810401D02*
X157015276Y-72715163D01*
X157015276Y-72715163D02*
X157205752Y-72667544D01*
X157205752Y-72667544D02*
X157539085Y-72667544D01*
X157539085Y-72667544D02*
X157729561Y-72715163D01*
X157729561Y-72715163D02*
X157824800Y-72810401D01*
X157824800Y-72810401D02*
X157872419Y-72905639D01*
X157872419Y-72905639D02*
X157872419Y-73096115D01*
X157872419Y-73096115D02*
X157824800Y-73191353D01*
X157824800Y-73191353D02*
X157729561Y-73286591D01*
X157729561Y-73286591D02*
X157539085Y-73334210D01*
X157539085Y-73334210D02*
X157205752Y-73334210D01*
X157205752Y-73334210D02*
X157015276Y-73286591D01*
X157015276Y-73286591D02*
X156920038Y-73191353D01*
X156920038Y-73191353D02*
X156872419Y-73096115D01*
X157586704Y-72286591D02*
X157586704Y-71810401D01*
X157872419Y-72381829D02*
X156872419Y-72048496D01*
X156872419Y-72048496D02*
X157872419Y-71715163D01*
X157872419Y-71381829D02*
X156872419Y-71381829D01*
X156872419Y-71381829D02*
X156872419Y-71143734D01*
X156872419Y-71143734D02*
X156920038Y-71000877D01*
X156920038Y-71000877D02*
X157015276Y-70905639D01*
X157015276Y-70905639D02*
X157110514Y-70858020D01*
X157110514Y-70858020D02*
X157300990Y-70810401D01*
X157300990Y-70810401D02*
X157443847Y-70810401D01*
X157443847Y-70810401D02*
X157634323Y-70858020D01*
X157634323Y-70858020D02*
X157729561Y-70905639D01*
X157729561Y-70905639D02*
X157824800Y-71000877D01*
X157824800Y-71000877D02*
X157872419Y-71143734D01*
X157872419Y-71143734D02*
X157872419Y-71381829D01*
X157872419Y-69619924D02*
X156872419Y-69619924D01*
X157872419Y-69143734D02*
X156872419Y-69143734D01*
X156872419Y-69143734D02*
X157586704Y-68810401D01*
X157586704Y-68810401D02*
X156872419Y-68477068D01*
X156872419Y-68477068D02*
X157872419Y-68477068D01*
X157872419Y-68000877D02*
X156872419Y-68000877D01*
X156872419Y-68000877D02*
X156872419Y-67619925D01*
X156872419Y-67619925D02*
X156920038Y-67524687D01*
X156920038Y-67524687D02*
X156967657Y-67477068D01*
X156967657Y-67477068D02*
X157062895Y-67429449D01*
X157062895Y-67429449D02*
X157205752Y-67429449D01*
X157205752Y-67429449D02*
X157300990Y-67477068D01*
X157300990Y-67477068D02*
X157348609Y-67524687D01*
X157348609Y-67524687D02*
X157396228Y-67619925D01*
X157396228Y-67619925D02*
X157396228Y-68000877D01*
X157348609Y-67000877D02*
X157348609Y-66667544D01*
X157872419Y-66524687D02*
X157872419Y-67000877D01*
X157872419Y-67000877D02*
X156872419Y-67000877D01*
X156872419Y-67000877D02*
X156872419Y-66524687D01*
X157872419Y-66096115D02*
X156872419Y-66096115D01*
X156872419Y-66096115D02*
X156872419Y-65858020D01*
X156872419Y-65858020D02*
X156920038Y-65715163D01*
X156920038Y-65715163D02*
X157015276Y-65619925D01*
X157015276Y-65619925D02*
X157110514Y-65572306D01*
X157110514Y-65572306D02*
X157300990Y-65524687D01*
X157300990Y-65524687D02*
X157443847Y-65524687D01*
X157443847Y-65524687D02*
X157634323Y-65572306D01*
X157634323Y-65572306D02*
X157729561Y-65619925D01*
X157729561Y-65619925D02*
X157824800Y-65715163D01*
X157824800Y-65715163D02*
X157872419Y-65858020D01*
X157872419Y-65858020D02*
X157872419Y-66096115D01*
X157348609Y-65096115D02*
X157348609Y-64762782D01*
X157872419Y-64619925D02*
X157872419Y-65096115D01*
X157872419Y-65096115D02*
X156872419Y-65096115D01*
X156872419Y-65096115D02*
X156872419Y-64619925D01*
X157872419Y-64191353D02*
X156872419Y-64191353D01*
X156872419Y-64191353D02*
X157872419Y-63619925D01*
X157872419Y-63619925D02*
X156872419Y-63619925D01*
X157777180Y-62572306D02*
X157824800Y-62619925D01*
X157824800Y-62619925D02*
X157872419Y-62762782D01*
X157872419Y-62762782D02*
X157872419Y-62858020D01*
X157872419Y-62858020D02*
X157824800Y-63000877D01*
X157824800Y-63000877D02*
X157729561Y-63096115D01*
X157729561Y-63096115D02*
X157634323Y-63143734D01*
X157634323Y-63143734D02*
X157443847Y-63191353D01*
X157443847Y-63191353D02*
X157300990Y-63191353D01*
X157300990Y-63191353D02*
X157110514Y-63143734D01*
X157110514Y-63143734D02*
X157015276Y-63096115D01*
X157015276Y-63096115D02*
X156920038Y-63000877D01*
X156920038Y-63000877D02*
X156872419Y-62858020D01*
X156872419Y-62858020D02*
X156872419Y-62762782D01*
X156872419Y-62762782D02*
X156920038Y-62619925D01*
X156920038Y-62619925D02*
X156967657Y-62572306D01*
X157348609Y-62143734D02*
X157348609Y-61810401D01*
X157872419Y-61667544D02*
X157872419Y-62143734D01*
X157872419Y-62143734D02*
X156872419Y-62143734D01*
X156872419Y-62143734D02*
X156872419Y-61667544D01*
D11*
X163083333Y-98144819D02*
X162750000Y-97668628D01*
X162511905Y-98144819D02*
X162511905Y-97144819D01*
X162511905Y-97144819D02*
X162892857Y-97144819D01*
X162892857Y-97144819D02*
X162988095Y-97192438D01*
X162988095Y-97192438D02*
X163035714Y-97240057D01*
X163035714Y-97240057D02*
X163083333Y-97335295D01*
X163083333Y-97335295D02*
X163083333Y-97478152D01*
X163083333Y-97478152D02*
X163035714Y-97573390D01*
X163035714Y-97573390D02*
X162988095Y-97621009D01*
X162988095Y-97621009D02*
X162892857Y-97668628D01*
X162892857Y-97668628D02*
X162511905Y-97668628D01*
X163654762Y-97573390D02*
X163559524Y-97525771D01*
X163559524Y-97525771D02*
X163511905Y-97478152D01*
X163511905Y-97478152D02*
X163464286Y-97382914D01*
X163464286Y-97382914D02*
X163464286Y-97335295D01*
X163464286Y-97335295D02*
X163511905Y-97240057D01*
X163511905Y-97240057D02*
X163559524Y-97192438D01*
X163559524Y-97192438D02*
X163654762Y-97144819D01*
X163654762Y-97144819D02*
X163845238Y-97144819D01*
X163845238Y-97144819D02*
X163940476Y-97192438D01*
X163940476Y-97192438D02*
X163988095Y-97240057D01*
X163988095Y-97240057D02*
X164035714Y-97335295D01*
X164035714Y-97335295D02*
X164035714Y-97382914D01*
X164035714Y-97382914D02*
X163988095Y-97478152D01*
X163988095Y-97478152D02*
X163940476Y-97525771D01*
X163940476Y-97525771D02*
X163845238Y-97573390D01*
X163845238Y-97573390D02*
X163654762Y-97573390D01*
X163654762Y-97573390D02*
X163559524Y-97621009D01*
X163559524Y-97621009D02*
X163511905Y-97668628D01*
X163511905Y-97668628D02*
X163464286Y-97763866D01*
X163464286Y-97763866D02*
X163464286Y-97954342D01*
X163464286Y-97954342D02*
X163511905Y-98049580D01*
X163511905Y-98049580D02*
X163559524Y-98097200D01*
X163559524Y-98097200D02*
X163654762Y-98144819D01*
X163654762Y-98144819D02*
X163845238Y-98144819D01*
X163845238Y-98144819D02*
X163940476Y-98097200D01*
X163940476Y-98097200D02*
X163988095Y-98049580D01*
X163988095Y-98049580D02*
X164035714Y-97954342D01*
X164035714Y-97954342D02*
X164035714Y-97763866D01*
X164035714Y-97763866D02*
X163988095Y-97668628D01*
X163988095Y-97668628D02*
X163940476Y-97621009D01*
X163940476Y-97621009D02*
X163845238Y-97573390D01*
X152774819Y-102086666D02*
X152298628Y-102419999D01*
X152774819Y-102658094D02*
X151774819Y-102658094D01*
X151774819Y-102658094D02*
X151774819Y-102277142D01*
X151774819Y-102277142D02*
X151822438Y-102181904D01*
X151822438Y-102181904D02*
X151870057Y-102134285D01*
X151870057Y-102134285D02*
X151965295Y-102086666D01*
X151965295Y-102086666D02*
X152108152Y-102086666D01*
X152108152Y-102086666D02*
X152203390Y-102134285D01*
X152203390Y-102134285D02*
X152251009Y-102181904D01*
X152251009Y-102181904D02*
X152298628Y-102277142D01*
X152298628Y-102277142D02*
X152298628Y-102658094D01*
X151774819Y-101753332D02*
X151774819Y-101134285D01*
X151774819Y-101134285D02*
X152155771Y-101467618D01*
X152155771Y-101467618D02*
X152155771Y-101324761D01*
X152155771Y-101324761D02*
X152203390Y-101229523D01*
X152203390Y-101229523D02*
X152251009Y-101181904D01*
X152251009Y-101181904D02*
X152346247Y-101134285D01*
X152346247Y-101134285D02*
X152584342Y-101134285D01*
X152584342Y-101134285D02*
X152679580Y-101181904D01*
X152679580Y-101181904D02*
X152727200Y-101229523D01*
X152727200Y-101229523D02*
X152774819Y-101324761D01*
X152774819Y-101324761D02*
X152774819Y-101610475D01*
X152774819Y-101610475D02*
X152727200Y-101705713D01*
X152727200Y-101705713D02*
X152679580Y-101753332D01*
X163083333Y-87639819D02*
X162750000Y-87163628D01*
X162511905Y-87639819D02*
X162511905Y-86639819D01*
X162511905Y-86639819D02*
X162892857Y-86639819D01*
X162892857Y-86639819D02*
X162988095Y-86687438D01*
X162988095Y-86687438D02*
X163035714Y-86735057D01*
X163035714Y-86735057D02*
X163083333Y-86830295D01*
X163083333Y-86830295D02*
X163083333Y-86973152D01*
X163083333Y-86973152D02*
X163035714Y-87068390D01*
X163035714Y-87068390D02*
X162988095Y-87116009D01*
X162988095Y-87116009D02*
X162892857Y-87163628D01*
X162892857Y-87163628D02*
X162511905Y-87163628D01*
X163940476Y-86639819D02*
X163750000Y-86639819D01*
X163750000Y-86639819D02*
X163654762Y-86687438D01*
X163654762Y-86687438D02*
X163607143Y-86735057D01*
X163607143Y-86735057D02*
X163511905Y-86877914D01*
X163511905Y-86877914D02*
X163464286Y-87068390D01*
X163464286Y-87068390D02*
X163464286Y-87449342D01*
X163464286Y-87449342D02*
X163511905Y-87544580D01*
X163511905Y-87544580D02*
X163559524Y-87592200D01*
X163559524Y-87592200D02*
X163654762Y-87639819D01*
X163654762Y-87639819D02*
X163845238Y-87639819D01*
X163845238Y-87639819D02*
X163940476Y-87592200D01*
X163940476Y-87592200D02*
X163988095Y-87544580D01*
X163988095Y-87544580D02*
X164035714Y-87449342D01*
X164035714Y-87449342D02*
X164035714Y-87211247D01*
X164035714Y-87211247D02*
X163988095Y-87116009D01*
X163988095Y-87116009D02*
X163940476Y-87068390D01*
X163940476Y-87068390D02*
X163845238Y-87020771D01*
X163845238Y-87020771D02*
X163654762Y-87020771D01*
X163654762Y-87020771D02*
X163559524Y-87068390D01*
X163559524Y-87068390D02*
X163511905Y-87116009D01*
X163511905Y-87116009D02*
X163464286Y-87211247D01*
X140834580Y-102086666D02*
X140882200Y-102134285D01*
X140882200Y-102134285D02*
X140929819Y-102277142D01*
X140929819Y-102277142D02*
X140929819Y-102372380D01*
X140929819Y-102372380D02*
X140882200Y-102515237D01*
X140882200Y-102515237D02*
X140786961Y-102610475D01*
X140786961Y-102610475D02*
X140691723Y-102658094D01*
X140691723Y-102658094D02*
X140501247Y-102705713D01*
X140501247Y-102705713D02*
X140358390Y-102705713D01*
X140358390Y-102705713D02*
X140167914Y-102658094D01*
X140167914Y-102658094D02*
X140072676Y-102610475D01*
X140072676Y-102610475D02*
X139977438Y-102515237D01*
X139977438Y-102515237D02*
X139929819Y-102372380D01*
X139929819Y-102372380D02*
X139929819Y-102277142D01*
X139929819Y-102277142D02*
X139977438Y-102134285D01*
X139977438Y-102134285D02*
X140025057Y-102086666D01*
X139929819Y-101753332D02*
X139929819Y-101086666D01*
X139929819Y-101086666D02*
X140929819Y-101515237D01*
X162607142Y-119899819D02*
X162273809Y-119423628D01*
X162035714Y-119899819D02*
X162035714Y-118899819D01*
X162035714Y-118899819D02*
X162416666Y-118899819D01*
X162416666Y-118899819D02*
X162511904Y-118947438D01*
X162511904Y-118947438D02*
X162559523Y-118995057D01*
X162559523Y-118995057D02*
X162607142Y-119090295D01*
X162607142Y-119090295D02*
X162607142Y-119233152D01*
X162607142Y-119233152D02*
X162559523Y-119328390D01*
X162559523Y-119328390D02*
X162511904Y-119376009D01*
X162511904Y-119376009D02*
X162416666Y-119423628D01*
X162416666Y-119423628D02*
X162035714Y-119423628D01*
X163559523Y-119899819D02*
X162988095Y-119899819D01*
X163273809Y-119899819D02*
X163273809Y-118899819D01*
X163273809Y-118899819D02*
X163178571Y-119042676D01*
X163178571Y-119042676D02*
X163083333Y-119137914D01*
X163083333Y-119137914D02*
X162988095Y-119185533D01*
X163940476Y-118995057D02*
X163988095Y-118947438D01*
X163988095Y-118947438D02*
X164083333Y-118899819D01*
X164083333Y-118899819D02*
X164321428Y-118899819D01*
X164321428Y-118899819D02*
X164416666Y-118947438D01*
X164416666Y-118947438D02*
X164464285Y-118995057D01*
X164464285Y-118995057D02*
X164511904Y-119090295D01*
X164511904Y-119090295D02*
X164511904Y-119185533D01*
X164511904Y-119185533D02*
X164464285Y-119328390D01*
X164464285Y-119328390D02*
X163892857Y-119899819D01*
X163892857Y-119899819D02*
X164511904Y-119899819D01*
X151088333Y-82960830D02*
X151040714Y-83008450D01*
X151040714Y-83008450D02*
X150897857Y-83056069D01*
X150897857Y-83056069D02*
X150802619Y-83056069D01*
X150802619Y-83056069D02*
X150659762Y-83008450D01*
X150659762Y-83008450D02*
X150564524Y-82913211D01*
X150564524Y-82913211D02*
X150516905Y-82817973D01*
X150516905Y-82817973D02*
X150469286Y-82627497D01*
X150469286Y-82627497D02*
X150469286Y-82484640D01*
X150469286Y-82484640D02*
X150516905Y-82294164D01*
X150516905Y-82294164D02*
X150564524Y-82198926D01*
X150564524Y-82198926D02*
X150659762Y-82103688D01*
X150659762Y-82103688D02*
X150802619Y-82056069D01*
X150802619Y-82056069D02*
X150897857Y-82056069D01*
X150897857Y-82056069D02*
X151040714Y-82103688D01*
X151040714Y-82103688D02*
X151088333Y-82151307D01*
X151945476Y-82056069D02*
X151755000Y-82056069D01*
X151755000Y-82056069D02*
X151659762Y-82103688D01*
X151659762Y-82103688D02*
X151612143Y-82151307D01*
X151612143Y-82151307D02*
X151516905Y-82294164D01*
X151516905Y-82294164D02*
X151469286Y-82484640D01*
X151469286Y-82484640D02*
X151469286Y-82865592D01*
X151469286Y-82865592D02*
X151516905Y-82960830D01*
X151516905Y-82960830D02*
X151564524Y-83008450D01*
X151564524Y-83008450D02*
X151659762Y-83056069D01*
X151659762Y-83056069D02*
X151850238Y-83056069D01*
X151850238Y-83056069D02*
X151945476Y-83008450D01*
X151945476Y-83008450D02*
X151993095Y-82960830D01*
X151993095Y-82960830D02*
X152040714Y-82865592D01*
X152040714Y-82865592D02*
X152040714Y-82627497D01*
X152040714Y-82627497D02*
X151993095Y-82532259D01*
X151993095Y-82532259D02*
X151945476Y-82484640D01*
X151945476Y-82484640D02*
X151850238Y-82437021D01*
X151850238Y-82437021D02*
X151659762Y-82437021D01*
X151659762Y-82437021D02*
X151564524Y-82484640D01*
X151564524Y-82484640D02*
X151516905Y-82532259D01*
X151516905Y-82532259D02*
X151469286Y-82627497D01*
X153009580Y-64592916D02*
X153057200Y-64640535D01*
X153057200Y-64640535D02*
X153104819Y-64783392D01*
X153104819Y-64783392D02*
X153104819Y-64878630D01*
X153104819Y-64878630D02*
X153057200Y-65021487D01*
X153057200Y-65021487D02*
X152961961Y-65116725D01*
X152961961Y-65116725D02*
X152866723Y-65164344D01*
X152866723Y-65164344D02*
X152676247Y-65211963D01*
X152676247Y-65211963D02*
X152533390Y-65211963D01*
X152533390Y-65211963D02*
X152342914Y-65164344D01*
X152342914Y-65164344D02*
X152247676Y-65116725D01*
X152247676Y-65116725D02*
X152152438Y-65021487D01*
X152152438Y-65021487D02*
X152104819Y-64878630D01*
X152104819Y-64878630D02*
X152104819Y-64783392D01*
X152104819Y-64783392D02*
X152152438Y-64640535D01*
X152152438Y-64640535D02*
X152200057Y-64592916D01*
X152104819Y-64259582D02*
X152104819Y-63640535D01*
X152104819Y-63640535D02*
X152485771Y-63973868D01*
X152485771Y-63973868D02*
X152485771Y-63831011D01*
X152485771Y-63831011D02*
X152533390Y-63735773D01*
X152533390Y-63735773D02*
X152581009Y-63688154D01*
X152581009Y-63688154D02*
X152676247Y-63640535D01*
X152676247Y-63640535D02*
X152914342Y-63640535D01*
X152914342Y-63640535D02*
X153009580Y-63688154D01*
X153009580Y-63688154D02*
X153057200Y-63735773D01*
X153057200Y-63735773D02*
X153104819Y-63831011D01*
X153104819Y-63831011D02*
X153104819Y-64116725D01*
X153104819Y-64116725D02*
X153057200Y-64211963D01*
X153057200Y-64211963D02*
X153009580Y-64259582D01*
X163083333Y-77479819D02*
X162750000Y-77003628D01*
X162511905Y-77479819D02*
X162511905Y-76479819D01*
X162511905Y-76479819D02*
X162892857Y-76479819D01*
X162892857Y-76479819D02*
X162988095Y-76527438D01*
X162988095Y-76527438D02*
X163035714Y-76575057D01*
X163035714Y-76575057D02*
X163083333Y-76670295D01*
X163083333Y-76670295D02*
X163083333Y-76813152D01*
X163083333Y-76813152D02*
X163035714Y-76908390D01*
X163035714Y-76908390D02*
X162988095Y-76956009D01*
X162988095Y-76956009D02*
X162892857Y-77003628D01*
X162892857Y-77003628D02*
X162511905Y-77003628D01*
X163940476Y-76813152D02*
X163940476Y-77479819D01*
X163702381Y-76432200D02*
X163464286Y-77146485D01*
X163464286Y-77146485D02*
X164083333Y-77146485D01*
X163083333Y-92834819D02*
X162750000Y-92358628D01*
X162511905Y-92834819D02*
X162511905Y-91834819D01*
X162511905Y-91834819D02*
X162892857Y-91834819D01*
X162892857Y-91834819D02*
X162988095Y-91882438D01*
X162988095Y-91882438D02*
X163035714Y-91930057D01*
X163035714Y-91930057D02*
X163083333Y-92025295D01*
X163083333Y-92025295D02*
X163083333Y-92168152D01*
X163083333Y-92168152D02*
X163035714Y-92263390D01*
X163035714Y-92263390D02*
X162988095Y-92311009D01*
X162988095Y-92311009D02*
X162892857Y-92358628D01*
X162892857Y-92358628D02*
X162511905Y-92358628D01*
X163416667Y-91834819D02*
X164083333Y-91834819D01*
X164083333Y-91834819D02*
X163654762Y-92834819D01*
X144413095Y-87093569D02*
X144413095Y-87903092D01*
X144413095Y-87903092D02*
X144460714Y-87998330D01*
X144460714Y-87998330D02*
X144508333Y-88045950D01*
X144508333Y-88045950D02*
X144603571Y-88093569D01*
X144603571Y-88093569D02*
X144794047Y-88093569D01*
X144794047Y-88093569D02*
X144889285Y-88045950D01*
X144889285Y-88045950D02*
X144936904Y-87998330D01*
X144936904Y-87998330D02*
X144984523Y-87903092D01*
X144984523Y-87903092D02*
X144984523Y-87093569D01*
X145413095Y-87188807D02*
X145460714Y-87141188D01*
X145460714Y-87141188D02*
X145555952Y-87093569D01*
X145555952Y-87093569D02*
X145794047Y-87093569D01*
X145794047Y-87093569D02*
X145889285Y-87141188D01*
X145889285Y-87141188D02*
X145936904Y-87188807D01*
X145936904Y-87188807D02*
X145984523Y-87284045D01*
X145984523Y-87284045D02*
X145984523Y-87379283D01*
X145984523Y-87379283D02*
X145936904Y-87522140D01*
X145936904Y-87522140D02*
X145365476Y-88093569D01*
X145365476Y-88093569D02*
X145984523Y-88093569D01*
X126051666Y-102854819D02*
X126051666Y-103569104D01*
X126051666Y-103569104D02*
X126004047Y-103711961D01*
X126004047Y-103711961D02*
X125908809Y-103807200D01*
X125908809Y-103807200D02*
X125765952Y-103854819D01*
X125765952Y-103854819D02*
X125670714Y-103854819D01*
X126432619Y-102854819D02*
X127051666Y-102854819D01*
X127051666Y-102854819D02*
X126718333Y-103235771D01*
X126718333Y-103235771D02*
X126861190Y-103235771D01*
X126861190Y-103235771D02*
X126956428Y-103283390D01*
X126956428Y-103283390D02*
X127004047Y-103331009D01*
X127004047Y-103331009D02*
X127051666Y-103426247D01*
X127051666Y-103426247D02*
X127051666Y-103664342D01*
X127051666Y-103664342D02*
X127004047Y-103759580D01*
X127004047Y-103759580D02*
X126956428Y-103807200D01*
X126956428Y-103807200D02*
X126861190Y-103854819D01*
X126861190Y-103854819D02*
X126575476Y-103854819D01*
X126575476Y-103854819D02*
X126480238Y-103807200D01*
X126480238Y-103807200D02*
X126432619Y-103759580D01*
X162607142Y-109109819D02*
X162273809Y-108633628D01*
X162035714Y-109109819D02*
X162035714Y-108109819D01*
X162035714Y-108109819D02*
X162416666Y-108109819D01*
X162416666Y-108109819D02*
X162511904Y-108157438D01*
X162511904Y-108157438D02*
X162559523Y-108205057D01*
X162559523Y-108205057D02*
X162607142Y-108300295D01*
X162607142Y-108300295D02*
X162607142Y-108443152D01*
X162607142Y-108443152D02*
X162559523Y-108538390D01*
X162559523Y-108538390D02*
X162511904Y-108586009D01*
X162511904Y-108586009D02*
X162416666Y-108633628D01*
X162416666Y-108633628D02*
X162035714Y-108633628D01*
X163559523Y-109109819D02*
X162988095Y-109109819D01*
X163273809Y-109109819D02*
X163273809Y-108109819D01*
X163273809Y-108109819D02*
X163178571Y-108252676D01*
X163178571Y-108252676D02*
X163083333Y-108347914D01*
X163083333Y-108347914D02*
X162988095Y-108395533D01*
X164178571Y-108109819D02*
X164273809Y-108109819D01*
X164273809Y-108109819D02*
X164369047Y-108157438D01*
X164369047Y-108157438D02*
X164416666Y-108205057D01*
X164416666Y-108205057D02*
X164464285Y-108300295D01*
X164464285Y-108300295D02*
X164511904Y-108490771D01*
X164511904Y-108490771D02*
X164511904Y-108728866D01*
X164511904Y-108728866D02*
X164464285Y-108919342D01*
X164464285Y-108919342D02*
X164416666Y-109014580D01*
X164416666Y-109014580D02*
X164369047Y-109062200D01*
X164369047Y-109062200D02*
X164273809Y-109109819D01*
X164273809Y-109109819D02*
X164178571Y-109109819D01*
X164178571Y-109109819D02*
X164083333Y-109062200D01*
X164083333Y-109062200D02*
X164035714Y-109014580D01*
X164035714Y-109014580D02*
X163988095Y-108919342D01*
X163988095Y-108919342D02*
X163940476Y-108728866D01*
X163940476Y-108728866D02*
X163940476Y-108490771D01*
X163940476Y-108490771D02*
X163988095Y-108300295D01*
X163988095Y-108300295D02*
X164035714Y-108205057D01*
X164035714Y-108205057D02*
X164083333Y-108157438D01*
X164083333Y-108157438D02*
X164178571Y-108109819D01*
X129929580Y-84086666D02*
X129977200Y-84134285D01*
X129977200Y-84134285D02*
X130024819Y-84277142D01*
X130024819Y-84277142D02*
X130024819Y-84372380D01*
X130024819Y-84372380D02*
X129977200Y-84515237D01*
X129977200Y-84515237D02*
X129881961Y-84610475D01*
X129881961Y-84610475D02*
X129786723Y-84658094D01*
X129786723Y-84658094D02*
X129596247Y-84705713D01*
X129596247Y-84705713D02*
X129453390Y-84705713D01*
X129453390Y-84705713D02*
X129262914Y-84658094D01*
X129262914Y-84658094D02*
X129167676Y-84610475D01*
X129167676Y-84610475D02*
X129072438Y-84515237D01*
X129072438Y-84515237D02*
X129024819Y-84372380D01*
X129024819Y-84372380D02*
X129024819Y-84277142D01*
X129024819Y-84277142D02*
X129072438Y-84134285D01*
X129072438Y-84134285D02*
X129120057Y-84086666D01*
X130024819Y-83134285D02*
X130024819Y-83705713D01*
X130024819Y-83419999D02*
X129024819Y-83419999D01*
X129024819Y-83419999D02*
X129167676Y-83515237D01*
X129167676Y-83515237D02*
X129262914Y-83610475D01*
X129262914Y-83610475D02*
X129310533Y-83705713D01*
X162607142Y-114764819D02*
X162273809Y-114288628D01*
X162035714Y-114764819D02*
X162035714Y-113764819D01*
X162035714Y-113764819D02*
X162416666Y-113764819D01*
X162416666Y-113764819D02*
X162511904Y-113812438D01*
X162511904Y-113812438D02*
X162559523Y-113860057D01*
X162559523Y-113860057D02*
X162607142Y-113955295D01*
X162607142Y-113955295D02*
X162607142Y-114098152D01*
X162607142Y-114098152D02*
X162559523Y-114193390D01*
X162559523Y-114193390D02*
X162511904Y-114241009D01*
X162511904Y-114241009D02*
X162416666Y-114288628D01*
X162416666Y-114288628D02*
X162035714Y-114288628D01*
X163559523Y-114764819D02*
X162988095Y-114764819D01*
X163273809Y-114764819D02*
X163273809Y-113764819D01*
X163273809Y-113764819D02*
X163178571Y-113907676D01*
X163178571Y-113907676D02*
X163083333Y-114002914D01*
X163083333Y-114002914D02*
X162988095Y-114050533D01*
X164511904Y-114764819D02*
X163940476Y-114764819D01*
X164226190Y-114764819D02*
X164226190Y-113764819D01*
X164226190Y-113764819D02*
X164130952Y-113907676D01*
X164130952Y-113907676D02*
X164035714Y-114002914D01*
X164035714Y-114002914D02*
X163940476Y-114050533D01*
X128124819Y-79173333D02*
X128839104Y-79173333D01*
X128839104Y-79173333D02*
X128981961Y-79220952D01*
X128981961Y-79220952D02*
X129077200Y-79316190D01*
X129077200Y-79316190D02*
X129124819Y-79459047D01*
X129124819Y-79459047D02*
X129124819Y-79554285D01*
X128220057Y-78744761D02*
X128172438Y-78697142D01*
X128172438Y-78697142D02*
X128124819Y-78601904D01*
X128124819Y-78601904D02*
X128124819Y-78363809D01*
X128124819Y-78363809D02*
X128172438Y-78268571D01*
X128172438Y-78268571D02*
X128220057Y-78220952D01*
X128220057Y-78220952D02*
X128315295Y-78173333D01*
X128315295Y-78173333D02*
X128410533Y-78173333D01*
X128410533Y-78173333D02*
X128553390Y-78220952D01*
X128553390Y-78220952D02*
X129124819Y-78792380D01*
X129124819Y-78792380D02*
X129124819Y-78173333D01*
X163083333Y-82619819D02*
X162750000Y-82143628D01*
X162511905Y-82619819D02*
X162511905Y-81619819D01*
X162511905Y-81619819D02*
X162892857Y-81619819D01*
X162892857Y-81619819D02*
X162988095Y-81667438D01*
X162988095Y-81667438D02*
X163035714Y-81715057D01*
X163035714Y-81715057D02*
X163083333Y-81810295D01*
X163083333Y-81810295D02*
X163083333Y-81953152D01*
X163083333Y-81953152D02*
X163035714Y-82048390D01*
X163035714Y-82048390D02*
X162988095Y-82096009D01*
X162988095Y-82096009D02*
X162892857Y-82143628D01*
X162892857Y-82143628D02*
X162511905Y-82143628D01*
X163988095Y-81619819D02*
X163511905Y-81619819D01*
X163511905Y-81619819D02*
X163464286Y-82096009D01*
X163464286Y-82096009D02*
X163511905Y-82048390D01*
X163511905Y-82048390D02*
X163607143Y-82000771D01*
X163607143Y-82000771D02*
X163845238Y-82000771D01*
X163845238Y-82000771D02*
X163940476Y-82048390D01*
X163940476Y-82048390D02*
X163988095Y-82096009D01*
X163988095Y-82096009D02*
X164035714Y-82191247D01*
X164035714Y-82191247D02*
X164035714Y-82429342D01*
X164035714Y-82429342D02*
X163988095Y-82524580D01*
X163988095Y-82524580D02*
X163940476Y-82572200D01*
X163940476Y-82572200D02*
X163845238Y-82619819D01*
X163845238Y-82619819D02*
X163607143Y-82619819D01*
X163607143Y-82619819D02*
X163511905Y-82572200D01*
X163511905Y-82572200D02*
X163464286Y-82524580D01*
X143553333Y-121264819D02*
X143220000Y-120788628D01*
X142981905Y-121264819D02*
X142981905Y-120264819D01*
X142981905Y-120264819D02*
X143362857Y-120264819D01*
X143362857Y-120264819D02*
X143458095Y-120312438D01*
X143458095Y-120312438D02*
X143505714Y-120360057D01*
X143505714Y-120360057D02*
X143553333Y-120455295D01*
X143553333Y-120455295D02*
X143553333Y-120598152D01*
X143553333Y-120598152D02*
X143505714Y-120693390D01*
X143505714Y-120693390D02*
X143458095Y-120741009D01*
X143458095Y-120741009D02*
X143362857Y-120788628D01*
X143362857Y-120788628D02*
X142981905Y-120788628D01*
X144505714Y-121264819D02*
X143934286Y-121264819D01*
X144220000Y-121264819D02*
X144220000Y-120264819D01*
X144220000Y-120264819D02*
X144124762Y-120407676D01*
X144124762Y-120407676D02*
X144029524Y-120502914D01*
X144029524Y-120502914D02*
X143934286Y-120550533D01*
X152409580Y-85147916D02*
X152457200Y-85195535D01*
X152457200Y-85195535D02*
X152504819Y-85338392D01*
X152504819Y-85338392D02*
X152504819Y-85433630D01*
X152504819Y-85433630D02*
X152457200Y-85576487D01*
X152457200Y-85576487D02*
X152361961Y-85671725D01*
X152361961Y-85671725D02*
X152266723Y-85719344D01*
X152266723Y-85719344D02*
X152076247Y-85766963D01*
X152076247Y-85766963D02*
X151933390Y-85766963D01*
X151933390Y-85766963D02*
X151742914Y-85719344D01*
X151742914Y-85719344D02*
X151647676Y-85671725D01*
X151647676Y-85671725D02*
X151552438Y-85576487D01*
X151552438Y-85576487D02*
X151504819Y-85433630D01*
X151504819Y-85433630D02*
X151504819Y-85338392D01*
X151504819Y-85338392D02*
X151552438Y-85195535D01*
X151552438Y-85195535D02*
X151600057Y-85147916D01*
X151600057Y-84766963D02*
X151552438Y-84719344D01*
X151552438Y-84719344D02*
X151504819Y-84624106D01*
X151504819Y-84624106D02*
X151504819Y-84386011D01*
X151504819Y-84386011D02*
X151552438Y-84290773D01*
X151552438Y-84290773D02*
X151600057Y-84243154D01*
X151600057Y-84243154D02*
X151695295Y-84195535D01*
X151695295Y-84195535D02*
X151790533Y-84195535D01*
X151790533Y-84195535D02*
X151933390Y-84243154D01*
X151933390Y-84243154D02*
X152504819Y-84814582D01*
X152504819Y-84814582D02*
X152504819Y-84195535D01*
X148911666Y-119364819D02*
X148911666Y-120079104D01*
X148911666Y-120079104D02*
X148864047Y-120221961D01*
X148864047Y-120221961D02*
X148768809Y-120317200D01*
X148768809Y-120317200D02*
X148625952Y-120364819D01*
X148625952Y-120364819D02*
X148530714Y-120364819D01*
X149816428Y-119698152D02*
X149816428Y-120364819D01*
X149578333Y-119317200D02*
X149340238Y-120031485D01*
X149340238Y-120031485D02*
X149959285Y-120031485D01*
D12*
X162554318Y-70922618D02*
X162554318Y-70196904D01*
X163824318Y-70559761D02*
X162554318Y-70559761D01*
X163824318Y-69108332D02*
X163824318Y-69834047D01*
X163824318Y-69471190D02*
X162554318Y-69471190D01*
X162554318Y-69471190D02*
X162735746Y-69592142D01*
X162735746Y-69592142D02*
X162856699Y-69713094D01*
X162856699Y-69713094D02*
X162917175Y-69834047D01*
D11*
X147679580Y-64592916D02*
X147727200Y-64640535D01*
X147727200Y-64640535D02*
X147774819Y-64783392D01*
X147774819Y-64783392D02*
X147774819Y-64878630D01*
X147774819Y-64878630D02*
X147727200Y-65021487D01*
X147727200Y-65021487D02*
X147631961Y-65116725D01*
X147631961Y-65116725D02*
X147536723Y-65164344D01*
X147536723Y-65164344D02*
X147346247Y-65211963D01*
X147346247Y-65211963D02*
X147203390Y-65211963D01*
X147203390Y-65211963D02*
X147012914Y-65164344D01*
X147012914Y-65164344D02*
X146917676Y-65116725D01*
X146917676Y-65116725D02*
X146822438Y-65021487D01*
X146822438Y-65021487D02*
X146774819Y-64878630D01*
X146774819Y-64878630D02*
X146774819Y-64783392D01*
X146774819Y-64783392D02*
X146822438Y-64640535D01*
X146822438Y-64640535D02*
X146870057Y-64592916D01*
X147108152Y-63735773D02*
X147774819Y-63735773D01*
X146727200Y-63973868D02*
X147441485Y-64211963D01*
X147441485Y-64211963D02*
X147441485Y-63592916D01*
X168844819Y-131883333D02*
X169559104Y-131883333D01*
X169559104Y-131883333D02*
X169701961Y-131930952D01*
X169701961Y-131930952D02*
X169797200Y-132026190D01*
X169797200Y-132026190D02*
X169844819Y-132169047D01*
X169844819Y-132169047D02*
X169844819Y-132264285D01*
X168844819Y-131502380D02*
X168844819Y-130835714D01*
X168844819Y-130835714D02*
X169844819Y-131264285D01*
X162607142Y-125149819D02*
X162273809Y-124673628D01*
X162035714Y-125149819D02*
X162035714Y-124149819D01*
X162035714Y-124149819D02*
X162416666Y-124149819D01*
X162416666Y-124149819D02*
X162511904Y-124197438D01*
X162511904Y-124197438D02*
X162559523Y-124245057D01*
X162559523Y-124245057D02*
X162607142Y-124340295D01*
X162607142Y-124340295D02*
X162607142Y-124483152D01*
X162607142Y-124483152D02*
X162559523Y-124578390D01*
X162559523Y-124578390D02*
X162511904Y-124626009D01*
X162511904Y-124626009D02*
X162416666Y-124673628D01*
X162416666Y-124673628D02*
X162035714Y-124673628D01*
X163559523Y-125149819D02*
X162988095Y-125149819D01*
X163273809Y-125149819D02*
X163273809Y-124149819D01*
X163273809Y-124149819D02*
X163178571Y-124292676D01*
X163178571Y-124292676D02*
X163083333Y-124387914D01*
X163083333Y-124387914D02*
X162988095Y-124435533D01*
X163892857Y-124149819D02*
X164511904Y-124149819D01*
X164511904Y-124149819D02*
X164178571Y-124530771D01*
X164178571Y-124530771D02*
X164321428Y-124530771D01*
X164321428Y-124530771D02*
X164416666Y-124578390D01*
X164416666Y-124578390D02*
X164464285Y-124626009D01*
X164464285Y-124626009D02*
X164511904Y-124721247D01*
X164511904Y-124721247D02*
X164511904Y-124959342D01*
X164511904Y-124959342D02*
X164464285Y-125054580D01*
X164464285Y-125054580D02*
X164416666Y-125102200D01*
X164416666Y-125102200D02*
X164321428Y-125149819D01*
X164321428Y-125149819D02*
X164035714Y-125149819D01*
X164035714Y-125149819D02*
X163940476Y-125102200D01*
X163940476Y-125102200D02*
X163892857Y-125054580D01*
X166304819Y-62668333D02*
X167019104Y-62668333D01*
X167019104Y-62668333D02*
X167161961Y-62715952D01*
X167161961Y-62715952D02*
X167257200Y-62811190D01*
X167257200Y-62811190D02*
X167304819Y-62954047D01*
X167304819Y-62954047D02*
X167304819Y-63049285D01*
X166733390Y-62049285D02*
X166685771Y-62144523D01*
X166685771Y-62144523D02*
X166638152Y-62192142D01*
X166638152Y-62192142D02*
X166542914Y-62239761D01*
X166542914Y-62239761D02*
X166495295Y-62239761D01*
X166495295Y-62239761D02*
X166400057Y-62192142D01*
X166400057Y-62192142D02*
X166352438Y-62144523D01*
X166352438Y-62144523D02*
X166304819Y-62049285D01*
X166304819Y-62049285D02*
X166304819Y-61858809D01*
X166304819Y-61858809D02*
X166352438Y-61763571D01*
X166352438Y-61763571D02*
X166400057Y-61715952D01*
X166400057Y-61715952D02*
X166495295Y-61668333D01*
X166495295Y-61668333D02*
X166542914Y-61668333D01*
X166542914Y-61668333D02*
X166638152Y-61715952D01*
X166638152Y-61715952D02*
X166685771Y-61763571D01*
X166685771Y-61763571D02*
X166733390Y-61858809D01*
X166733390Y-61858809D02*
X166733390Y-62049285D01*
X166733390Y-62049285D02*
X166781009Y-62144523D01*
X166781009Y-62144523D02*
X166828628Y-62192142D01*
X166828628Y-62192142D02*
X166923866Y-62239761D01*
X166923866Y-62239761D02*
X167114342Y-62239761D01*
X167114342Y-62239761D02*
X167209580Y-62192142D01*
X167209580Y-62192142D02*
X167257200Y-62144523D01*
X167257200Y-62144523D02*
X167304819Y-62049285D01*
X167304819Y-62049285D02*
X167304819Y-61858809D01*
X167304819Y-61858809D02*
X167257200Y-61763571D01*
X167257200Y-61763571D02*
X167209580Y-61715952D01*
X167209580Y-61715952D02*
X167114342Y-61668333D01*
X167114342Y-61668333D02*
X166923866Y-61668333D01*
X166923866Y-61668333D02*
X166828628Y-61715952D01*
X166828628Y-61715952D02*
X166781009Y-61763571D01*
X166781009Y-61763571D02*
X166733390Y-61858809D01*
X147173333Y-96819819D02*
X146840000Y-96343628D01*
X146601905Y-96819819D02*
X146601905Y-95819819D01*
X146601905Y-95819819D02*
X146982857Y-95819819D01*
X146982857Y-95819819D02*
X147078095Y-95867438D01*
X147078095Y-95867438D02*
X147125714Y-95915057D01*
X147125714Y-95915057D02*
X147173333Y-96010295D01*
X147173333Y-96010295D02*
X147173333Y-96153152D01*
X147173333Y-96153152D02*
X147125714Y-96248390D01*
X147125714Y-96248390D02*
X147078095Y-96296009D01*
X147078095Y-96296009D02*
X146982857Y-96343628D01*
X146982857Y-96343628D02*
X146601905Y-96343628D01*
X147554286Y-95915057D02*
X147601905Y-95867438D01*
X147601905Y-95867438D02*
X147697143Y-95819819D01*
X147697143Y-95819819D02*
X147935238Y-95819819D01*
X147935238Y-95819819D02*
X148030476Y-95867438D01*
X148030476Y-95867438D02*
X148078095Y-95915057D01*
X148078095Y-95915057D02*
X148125714Y-96010295D01*
X148125714Y-96010295D02*
X148125714Y-96105533D01*
X148125714Y-96105533D02*
X148078095Y-96248390D01*
X148078095Y-96248390D02*
X147506667Y-96819819D01*
X147506667Y-96819819D02*
X148125714Y-96819819D01*
X147905476Y-79881069D02*
X148572142Y-80881069D01*
X148572142Y-79881069D02*
X147905476Y-80881069D01*
X149476904Y-80881069D02*
X148905476Y-80881069D01*
X149191190Y-80881069D02*
X149191190Y-79881069D01*
X149191190Y-79881069D02*
X149095952Y-80023926D01*
X149095952Y-80023926D02*
X149000714Y-80119164D01*
X149000714Y-80119164D02*
X148905476Y-80166783D01*
X144529819Y-115346904D02*
X145339342Y-115346904D01*
X145339342Y-115346904D02*
X145434580Y-115299285D01*
X145434580Y-115299285D02*
X145482200Y-115251666D01*
X145482200Y-115251666D02*
X145529819Y-115156428D01*
X145529819Y-115156428D02*
X145529819Y-114965952D01*
X145529819Y-114965952D02*
X145482200Y-114870714D01*
X145482200Y-114870714D02*
X145434580Y-114823095D01*
X145434580Y-114823095D02*
X145339342Y-114775476D01*
X145339342Y-114775476D02*
X144529819Y-114775476D01*
X145529819Y-113775476D02*
X145529819Y-114346904D01*
X145529819Y-114061190D02*
X144529819Y-114061190D01*
X144529819Y-114061190D02*
X144672676Y-114156428D01*
X144672676Y-114156428D02*
X144767914Y-114251666D01*
X144767914Y-114251666D02*
X144815533Y-114346904D01*
X128124819Y-89333333D02*
X128839104Y-89333333D01*
X128839104Y-89333333D02*
X128981961Y-89380952D01*
X128981961Y-89380952D02*
X129077200Y-89476190D01*
X129077200Y-89476190D02*
X129124819Y-89619047D01*
X129124819Y-89619047D02*
X129124819Y-89714285D01*
X129124819Y-88333333D02*
X129124819Y-88904761D01*
X129124819Y-88619047D02*
X128124819Y-88619047D01*
X128124819Y-88619047D02*
X128267676Y-88714285D01*
X128267676Y-88714285D02*
X128362914Y-88809523D01*
X128362914Y-88809523D02*
X128410533Y-88904761D01*
X163083333Y-103569819D02*
X162750000Y-103093628D01*
X162511905Y-103569819D02*
X162511905Y-102569819D01*
X162511905Y-102569819D02*
X162892857Y-102569819D01*
X162892857Y-102569819D02*
X162988095Y-102617438D01*
X162988095Y-102617438D02*
X163035714Y-102665057D01*
X163035714Y-102665057D02*
X163083333Y-102760295D01*
X163083333Y-102760295D02*
X163083333Y-102903152D01*
X163083333Y-102903152D02*
X163035714Y-102998390D01*
X163035714Y-102998390D02*
X162988095Y-103046009D01*
X162988095Y-103046009D02*
X162892857Y-103093628D01*
X162892857Y-103093628D02*
X162511905Y-103093628D01*
X163559524Y-103569819D02*
X163750000Y-103569819D01*
X163750000Y-103569819D02*
X163845238Y-103522200D01*
X163845238Y-103522200D02*
X163892857Y-103474580D01*
X163892857Y-103474580D02*
X163988095Y-103331723D01*
X163988095Y-103331723D02*
X164035714Y-103141247D01*
X164035714Y-103141247D02*
X164035714Y-102760295D01*
X164035714Y-102760295D02*
X163988095Y-102665057D01*
X163988095Y-102665057D02*
X163940476Y-102617438D01*
X163940476Y-102617438D02*
X163845238Y-102569819D01*
X163845238Y-102569819D02*
X163654762Y-102569819D01*
X163654762Y-102569819D02*
X163559524Y-102617438D01*
X163559524Y-102617438D02*
X163511905Y-102665057D01*
X163511905Y-102665057D02*
X163464286Y-102760295D01*
X163464286Y-102760295D02*
X163464286Y-102998390D01*
X163464286Y-102998390D02*
X163511905Y-103093628D01*
X163511905Y-103093628D02*
X163559524Y-103141247D01*
X163559524Y-103141247D02*
X163654762Y-103188866D01*
X163654762Y-103188866D02*
X163845238Y-103188866D01*
X163845238Y-103188866D02*
X163940476Y-103141247D01*
X163940476Y-103141247D02*
X163988095Y-103093628D01*
X163988095Y-103093628D02*
X164035714Y-102998390D01*
X150816666Y-104124819D02*
X150816666Y-104839104D01*
X150816666Y-104839104D02*
X150769047Y-104981961D01*
X150769047Y-104981961D02*
X150673809Y-105077200D01*
X150673809Y-105077200D02*
X150530952Y-105124819D01*
X150530952Y-105124819D02*
X150435714Y-105124819D01*
X151769047Y-104124819D02*
X151292857Y-104124819D01*
X151292857Y-104124819D02*
X151245238Y-104601009D01*
X151245238Y-104601009D02*
X151292857Y-104553390D01*
X151292857Y-104553390D02*
X151388095Y-104505771D01*
X151388095Y-104505771D02*
X151626190Y-104505771D01*
X151626190Y-104505771D02*
X151721428Y-104553390D01*
X151721428Y-104553390D02*
X151769047Y-104601009D01*
X151769047Y-104601009D02*
X151816666Y-104696247D01*
X151816666Y-104696247D02*
X151816666Y-104934342D01*
X151816666Y-104934342D02*
X151769047Y-105029580D01*
X151769047Y-105029580D02*
X151721428Y-105077200D01*
X151721428Y-105077200D02*
X151626190Y-105124819D01*
X151626190Y-105124819D02*
X151388095Y-105124819D01*
X151388095Y-105124819D02*
X151292857Y-105077200D01*
X151292857Y-105077200D02*
X151245238Y-105029580D01*
X140834580Y-114151666D02*
X140882200Y-114199285D01*
X140882200Y-114199285D02*
X140929819Y-114342142D01*
X140929819Y-114342142D02*
X140929819Y-114437380D01*
X140929819Y-114437380D02*
X140882200Y-114580237D01*
X140882200Y-114580237D02*
X140786961Y-114675475D01*
X140786961Y-114675475D02*
X140691723Y-114723094D01*
X140691723Y-114723094D02*
X140501247Y-114770713D01*
X140501247Y-114770713D02*
X140358390Y-114770713D01*
X140358390Y-114770713D02*
X140167914Y-114723094D01*
X140167914Y-114723094D02*
X140072676Y-114675475D01*
X140072676Y-114675475D02*
X139977438Y-114580237D01*
X139977438Y-114580237D02*
X139929819Y-114437380D01*
X139929819Y-114437380D02*
X139929819Y-114342142D01*
X139929819Y-114342142D02*
X139977438Y-114199285D01*
X139977438Y-114199285D02*
X140025057Y-114151666D01*
X140358390Y-113580237D02*
X140310771Y-113675475D01*
X140310771Y-113675475D02*
X140263152Y-113723094D01*
X140263152Y-113723094D02*
X140167914Y-113770713D01*
X140167914Y-113770713D02*
X140120295Y-113770713D01*
X140120295Y-113770713D02*
X140025057Y-113723094D01*
X140025057Y-113723094D02*
X139977438Y-113675475D01*
X139977438Y-113675475D02*
X139929819Y-113580237D01*
X139929819Y-113580237D02*
X139929819Y-113389761D01*
X139929819Y-113389761D02*
X139977438Y-113294523D01*
X139977438Y-113294523D02*
X140025057Y-113246904D01*
X140025057Y-113246904D02*
X140120295Y-113199285D01*
X140120295Y-113199285D02*
X140167914Y-113199285D01*
X140167914Y-113199285D02*
X140263152Y-113246904D01*
X140263152Y-113246904D02*
X140310771Y-113294523D01*
X140310771Y-113294523D02*
X140358390Y-113389761D01*
X140358390Y-113389761D02*
X140358390Y-113580237D01*
X140358390Y-113580237D02*
X140406009Y-113675475D01*
X140406009Y-113675475D02*
X140453628Y-113723094D01*
X140453628Y-113723094D02*
X140548866Y-113770713D01*
X140548866Y-113770713D02*
X140739342Y-113770713D01*
X140739342Y-113770713D02*
X140834580Y-113723094D01*
X140834580Y-113723094D02*
X140882200Y-113675475D01*
X140882200Y-113675475D02*
X140929819Y-113580237D01*
X140929819Y-113580237D02*
X140929819Y-113389761D01*
X140929819Y-113389761D02*
X140882200Y-113294523D01*
X140882200Y-113294523D02*
X140834580Y-113246904D01*
X140834580Y-113246904D02*
X140739342Y-113199285D01*
X140739342Y-113199285D02*
X140548866Y-113199285D01*
X140548866Y-113199285D02*
X140453628Y-113246904D01*
X140453628Y-113246904D02*
X140406009Y-113294523D01*
X140406009Y-113294523D02*
X140358390Y-113389761D01*
X151723333Y-91215830D02*
X151675714Y-91263450D01*
X151675714Y-91263450D02*
X151532857Y-91311069D01*
X151532857Y-91311069D02*
X151437619Y-91311069D01*
X151437619Y-91311069D02*
X151294762Y-91263450D01*
X151294762Y-91263450D02*
X151199524Y-91168211D01*
X151199524Y-91168211D02*
X151151905Y-91072973D01*
X151151905Y-91072973D02*
X151104286Y-90882497D01*
X151104286Y-90882497D02*
X151104286Y-90739640D01*
X151104286Y-90739640D02*
X151151905Y-90549164D01*
X151151905Y-90549164D02*
X151199524Y-90453926D01*
X151199524Y-90453926D02*
X151294762Y-90358688D01*
X151294762Y-90358688D02*
X151437619Y-90311069D01*
X151437619Y-90311069D02*
X151532857Y-90311069D01*
X151532857Y-90311069D02*
X151675714Y-90358688D01*
X151675714Y-90358688D02*
X151723333Y-90406307D01*
X152628095Y-90311069D02*
X152151905Y-90311069D01*
X152151905Y-90311069D02*
X152104286Y-90787259D01*
X152104286Y-90787259D02*
X152151905Y-90739640D01*
X152151905Y-90739640D02*
X152247143Y-90692021D01*
X152247143Y-90692021D02*
X152485238Y-90692021D01*
X152485238Y-90692021D02*
X152580476Y-90739640D01*
X152580476Y-90739640D02*
X152628095Y-90787259D01*
X152628095Y-90787259D02*
X152675714Y-90882497D01*
X152675714Y-90882497D02*
X152675714Y-91120592D01*
X152675714Y-91120592D02*
X152628095Y-91215830D01*
X152628095Y-91215830D02*
X152580476Y-91263450D01*
X152580476Y-91263450D02*
X152485238Y-91311069D01*
X152485238Y-91311069D02*
X152247143Y-91311069D01*
X152247143Y-91311069D02*
X152151905Y-91263450D01*
X152151905Y-91263450D02*
X152104286Y-91215830D01*
X152404819Y-68804583D02*
X153119104Y-68804583D01*
X153119104Y-68804583D02*
X153261961Y-68852202D01*
X153261961Y-68852202D02*
X153357200Y-68947440D01*
X153357200Y-68947440D02*
X153404819Y-69090297D01*
X153404819Y-69090297D02*
X153404819Y-69185535D01*
X152404819Y-67899821D02*
X152404819Y-68090297D01*
X152404819Y-68090297D02*
X152452438Y-68185535D01*
X152452438Y-68185535D02*
X152500057Y-68233154D01*
X152500057Y-68233154D02*
X152642914Y-68328392D01*
X152642914Y-68328392D02*
X152833390Y-68376011D01*
X152833390Y-68376011D02*
X153214342Y-68376011D01*
X153214342Y-68376011D02*
X153309580Y-68328392D01*
X153309580Y-68328392D02*
X153357200Y-68280773D01*
X153357200Y-68280773D02*
X153404819Y-68185535D01*
X153404819Y-68185535D02*
X153404819Y-67995059D01*
X153404819Y-67995059D02*
X153357200Y-67899821D01*
X153357200Y-67899821D02*
X153309580Y-67852202D01*
X153309580Y-67852202D02*
X153214342Y-67804583D01*
X153214342Y-67804583D02*
X152976247Y-67804583D01*
X152976247Y-67804583D02*
X152881009Y-67852202D01*
X152881009Y-67852202D02*
X152833390Y-67899821D01*
X152833390Y-67899821D02*
X152785771Y-67995059D01*
X152785771Y-67995059D02*
X152785771Y-68185535D01*
X152785771Y-68185535D02*
X152833390Y-68280773D01*
X152833390Y-68280773D02*
X152881009Y-68328392D01*
X152881009Y-68328392D02*
X152976247Y-68376011D01*
D13*
%TO.C,R8*%
X162522936Y-98600000D02*
X163977064Y-98600000D01*
X162522936Y-100420000D02*
X163977064Y-100420000D01*
%TO.C,R3*%
X150770000Y-101766359D02*
X150770000Y-102073641D01*
X151530000Y-101766359D02*
X151530000Y-102073641D01*
%TO.C,R6*%
X162522936Y-88095000D02*
X163977064Y-88095000D01*
X162522936Y-89915000D02*
X163977064Y-89915000D01*
%TO.C,C7*%
X131015000Y-98724437D02*
X131015000Y-106180000D01*
X131015000Y-106180000D02*
X133765000Y-106180000D01*
X132079437Y-97660000D02*
X131015000Y-98724437D01*
X132079437Y-97660000D02*
X133765000Y-97660000D01*
X137785000Y-96420000D02*
X137785000Y-97420000D01*
X138285000Y-96920000D02*
X137285000Y-96920000D01*
X138470563Y-97660000D02*
X136785000Y-97660000D01*
X138470563Y-97660000D02*
X139535000Y-98724437D01*
X139535000Y-98724437D02*
X139535000Y-106180000D01*
X139535000Y-106180000D02*
X136785000Y-106180000D01*
%TO.C,R12*%
X162522936Y-120355000D02*
X163977064Y-120355000D01*
X162522936Y-122175000D02*
X163977064Y-122175000D01*
%TO.C,C6*%
X151395580Y-80661250D02*
X151114420Y-80661250D01*
X151395580Y-81681250D02*
X151114420Y-81681250D01*
%TO.C,C3*%
X150235000Y-64164998D02*
X150235000Y-64687502D01*
X151705000Y-64164998D02*
X151705000Y-64687502D01*
%TO.C,R4*%
X162522936Y-77935000D02*
X163977064Y-77935000D01*
X162522936Y-79755000D02*
X163977064Y-79755000D01*
%TO.C,R7*%
X162522936Y-93290000D02*
X163977064Y-93290000D01*
X162522936Y-95110000D02*
X163977064Y-95110000D01*
%TO.C,U2*%
X145175000Y-83578750D02*
X143675000Y-83578750D01*
X145175000Y-83578750D02*
X146675000Y-83578750D01*
X145175000Y-86798750D02*
X143675000Y-86798750D01*
X145175000Y-86798750D02*
X146675000Y-86798750D01*
X147627500Y-86953750D02*
X147147500Y-86953750D01*
X147387500Y-86623750D01*
X147627500Y-86953750D01*
G36*
X147627500Y-86953750D02*
G01*
X147147500Y-86953750D01*
X147387500Y-86623750D01*
X147627500Y-86953750D01*
G37*
%TO.C,J3*%
X125055000Y-104400000D02*
X126385000Y-104400000D01*
X125055000Y-105730000D02*
X125055000Y-104400000D01*
X125055000Y-107000000D02*
X125055000Y-112140000D01*
X125055000Y-107000000D02*
X127715000Y-107000000D01*
X125055000Y-112140000D02*
X127715000Y-112140000D01*
X127715000Y-107000000D02*
X127715000Y-112140000D01*
%TO.C,R10*%
X162522936Y-109565000D02*
X163977064Y-109565000D01*
X162522936Y-111385000D02*
X163977064Y-111385000D01*
%TO.C,C1*%
X130490000Y-84060580D02*
X130490000Y-83779420D01*
X131510000Y-84060580D02*
X131510000Y-83779420D01*
%TO.C,R11*%
X162522936Y-115220000D02*
X163977064Y-115220000D01*
X162522936Y-117040000D02*
X163977064Y-117040000D01*
%TO.C,J2*%
X129670000Y-80170000D02*
X129670000Y-78840000D01*
X131000000Y-80170000D02*
X129670000Y-80170000D01*
X132270000Y-77510000D02*
X132330000Y-77510000D01*
X132270000Y-80170000D02*
X132270000Y-77510000D01*
X132270000Y-80170000D02*
X132330000Y-80170000D01*
X132330000Y-80170000D02*
X132330000Y-77510000D01*
%TO.C,R5*%
X162522936Y-83075000D02*
X163977064Y-83075000D01*
X162522936Y-84895000D02*
X163977064Y-84895000D01*
%TO.C,R1*%
X143482742Y-121717500D02*
X143957258Y-121717500D01*
X143482742Y-122762500D02*
X143957258Y-122762500D01*
%TO.C,C2*%
X150110000Y-84840670D02*
X150110000Y-85121830D01*
X151130000Y-84840670D02*
X151130000Y-85121830D01*
%TO.C,J4*%
X147915000Y-120910000D02*
X149245000Y-120910000D01*
X147915000Y-122240000D02*
X147915000Y-120910000D01*
X147915000Y-123510000D02*
X147915000Y-123570000D01*
X147915000Y-123510000D02*
X150575000Y-123510000D01*
X147915000Y-123570000D02*
X150575000Y-123570000D01*
X150575000Y-123510000D02*
X150575000Y-123570000D01*
D14*
%TO.C,T1*%
X159850000Y-66020000D02*
X159850000Y-73890000D01*
D10*
X165850000Y-64955000D02*
X165850000Y-64955000D01*
X165850000Y-65055000D02*
X165850000Y-65055000D01*
D14*
X166650000Y-66020000D02*
X166680000Y-73890000D01*
D10*
X165850000Y-64955000D02*
G75*
G02*
X165850000Y-65055000I0J-50000D01*
G01*
X165850000Y-65055000D02*
G75*
G02*
X165850000Y-64955000I0J50000D01*
G01*
D13*
%TO.C,C4*%
X145380000Y-64285670D02*
X145380000Y-64566830D01*
X146400000Y-64285670D02*
X146400000Y-64566830D01*
%TO.C,J7*%
X163190000Y-130220000D02*
X163190000Y-132880000D01*
X165790000Y-130220000D02*
X163190000Y-130220000D01*
X165790000Y-130220000D02*
X165790000Y-132880000D01*
X165790000Y-132880000D02*
X163190000Y-132880000D01*
X167060000Y-130220000D02*
X168390000Y-130220000D01*
X168390000Y-130220000D02*
X168390000Y-131550000D01*
%TO.C,R13*%
X162522936Y-125605000D02*
X163977064Y-125605000D01*
X162522936Y-127425000D02*
X163977064Y-127425000D01*
%TO.C,J8*%
X160650000Y-61005000D02*
X160650000Y-63665000D01*
X163250000Y-61005000D02*
X160650000Y-61005000D01*
X163250000Y-61005000D02*
X163250000Y-63665000D01*
X163250000Y-63665000D02*
X160650000Y-63665000D01*
X164520000Y-61005000D02*
X165850000Y-61005000D01*
X165850000Y-61005000D02*
X165850000Y-62335000D01*
%TO.C,R2*%
X147577258Y-94412500D02*
X147102742Y-94412500D01*
X147577258Y-95457500D02*
X147102742Y-95457500D01*
%TO.C,X1*%
X145015000Y-74026250D02*
X145015000Y-74326250D01*
X145015000Y-77026250D02*
X145015000Y-76426250D01*
X145015000Y-79426250D02*
X145015000Y-79126250D01*
X152415000Y-74026250D02*
X145015000Y-74026250D01*
X152415000Y-74326250D02*
X152415000Y-74026250D01*
X152415000Y-76426250D02*
X152415000Y-77026250D01*
X152415000Y-79126250D02*
X152415000Y-79426250D01*
X152415000Y-79426250D02*
X145015000Y-79426250D01*
X152915000Y-74326250D02*
X152415000Y-74326250D01*
X152915000Y-76426250D02*
X152415000Y-76426250D01*
D11*
%TO.C,U1*%
X146000000Y-116660000D02*
X146000000Y-112510000D01*
X151150000Y-116660000D02*
X151150000Y-112510000D01*
D13*
X146075000Y-117085000D02*
X145745000Y-117325000D01*
X145745000Y-116845000D01*
X146075000Y-117085000D01*
G36*
X146075000Y-117085000D02*
G01*
X145745000Y-117325000D01*
X145745000Y-116845000D01*
X146075000Y-117085000D01*
G37*
%TO.C,J1*%
X129670000Y-90330000D02*
X129670000Y-89000000D01*
X131000000Y-90330000D02*
X129670000Y-90330000D01*
X132270000Y-87670000D02*
X132330000Y-87670000D01*
X132270000Y-90330000D02*
X132270000Y-87670000D01*
X132270000Y-90330000D02*
X132330000Y-90330000D01*
X132330000Y-90330000D02*
X132330000Y-87670000D01*
%TO.C,R9*%
X162522936Y-104025000D02*
X163977064Y-104025000D01*
X162522936Y-105845000D02*
X163977064Y-105845000D01*
%TO.C,J5*%
X150670000Y-105670000D02*
X152000000Y-105670000D01*
X150670000Y-107000000D02*
X150670000Y-105670000D01*
X150670000Y-108270000D02*
X150670000Y-108330000D01*
X150670000Y-108270000D02*
X153330000Y-108270000D01*
X150670000Y-108330000D02*
X153330000Y-108330000D01*
X153330000Y-108270000D02*
X153330000Y-108330000D01*
%TO.C,C8*%
X131015000Y-110789437D02*
X131015000Y-118245000D01*
X131015000Y-118245000D02*
X133765000Y-118245000D01*
X132079437Y-109725000D02*
X131015000Y-110789437D01*
X132079437Y-109725000D02*
X133765000Y-109725000D01*
X137785000Y-108485000D02*
X137785000Y-109485000D01*
X138285000Y-108985000D02*
X137285000Y-108985000D01*
X138470563Y-109725000D02*
X136785000Y-109725000D01*
X138470563Y-109725000D02*
X139535000Y-110789437D01*
X139535000Y-110789437D02*
X139535000Y-118245000D01*
X139535000Y-118245000D02*
X136785000Y-118245000D01*
%TO.C,C5*%
X152030580Y-88916250D02*
X151749420Y-88916250D01*
X152030580Y-89936250D02*
X151749420Y-89936250D01*
%TO.C,J6*%
X136590000Y-67141250D02*
X136590000Y-69801250D01*
X149350000Y-67141250D02*
X136590000Y-67141250D01*
X149350000Y-67141250D02*
X149350000Y-69801250D01*
X149350000Y-69801250D02*
X136590000Y-69801250D01*
X150620000Y-67141250D02*
X151950000Y-67141250D01*
X151950000Y-67141250D02*
X151950000Y-68471250D01*
%TD*%
%LPC*%
D15*
%TO.C,R8*%
X161787500Y-99510000D03*
X164712500Y-99510000D03*
%TD*%
D16*
%TO.C,R3*%
X151150000Y-101410000D03*
X151150000Y-102430000D03*
%TD*%
D15*
%TO.C,R6*%
X161787500Y-89005000D03*
X164712500Y-89005000D03*
%TD*%
D17*
%TO.C,C7*%
X135275000Y-98670000D03*
X135275000Y-105170000D03*
%TD*%
D15*
%TO.C,R12*%
X161787500Y-121265000D03*
X164712500Y-121265000D03*
%TD*%
D18*
%TO.C,C6*%
X152030000Y-81171250D03*
X150480000Y-81171250D03*
%TD*%
D19*
%TO.C,C3*%
X150970000Y-63476250D03*
X150970000Y-65376250D03*
%TD*%
D15*
%TO.C,R4*%
X161787500Y-78845000D03*
X164712500Y-78845000D03*
%TD*%
%TO.C,R7*%
X161787500Y-94200000D03*
X164712500Y-94200000D03*
%TD*%
D20*
%TO.C,U2*%
X147287500Y-86188750D03*
X147287500Y-85688750D03*
X147287500Y-85188750D03*
X147287500Y-84688750D03*
X147287500Y-84188750D03*
X143062500Y-84188750D03*
X143062500Y-84688750D03*
X143062500Y-85188750D03*
X143062500Y-85688750D03*
X143062500Y-86188750D03*
%TD*%
D21*
%TO.C,J3*%
X126385000Y-105730000D03*
D22*
X126385000Y-108270000D03*
X126385000Y-110810000D03*
%TD*%
D15*
%TO.C,R10*%
X161787500Y-110475000D03*
X164712500Y-110475000D03*
%TD*%
D23*
%TO.C,C1*%
X131000000Y-84695000D03*
X131000000Y-83145000D03*
%TD*%
D15*
%TO.C,R11*%
X161787500Y-116130000D03*
X164712500Y-116130000D03*
%TD*%
D21*
%TO.C,J2*%
X131000000Y-78840000D03*
%TD*%
D15*
%TO.C,R5*%
X161787500Y-83985000D03*
X164712500Y-83985000D03*
%TD*%
D24*
%TO.C,R1*%
X142895000Y-122240000D03*
X144545000Y-122240000D03*
%TD*%
D25*
%TO.C,C2*%
X150620000Y-84206250D03*
X150620000Y-85756250D03*
%TD*%
D21*
%TO.C,J4*%
X149245000Y-122240000D03*
%TD*%
D26*
%TO.C,T1*%
X165790000Y-66145000D03*
X163250000Y-66145000D03*
X160710000Y-66145000D03*
X160710000Y-73765000D03*
X163250000Y-73765000D03*
X165790000Y-73765000D03*
%TD*%
D25*
%TO.C,C4*%
X145890000Y-63651250D03*
X145890000Y-65201250D03*
%TD*%
D21*
%TO.C,J7*%
X167060000Y-131550000D03*
D22*
X164520000Y-131550000D03*
%TD*%
D15*
%TO.C,R13*%
X161787500Y-126515000D03*
X164712500Y-126515000D03*
%TD*%
D21*
%TO.C,J8*%
X164520000Y-62335000D03*
D22*
X161980000Y-62335000D03*
%TD*%
D27*
%TO.C,R2*%
X148165000Y-94935000D03*
X146515000Y-94935000D03*
%TD*%
D28*
%TO.C,X1*%
X151665000Y-75376250D03*
X145765000Y-75376250D03*
X145765000Y-78076250D03*
X151665000Y-78076250D03*
%TD*%
D29*
%TO.C,U1*%
X146670000Y-117285000D03*
X147940000Y-117285000D03*
X149210000Y-117285000D03*
X150480000Y-117285000D03*
X150480000Y-111885000D03*
X149210000Y-111885000D03*
X147940000Y-111885000D03*
X146670000Y-111885000D03*
D30*
X148575000Y-114585000D03*
%TD*%
D21*
%TO.C,J1*%
X131000000Y-89000000D03*
%TD*%
D15*
%TO.C,R9*%
X161787500Y-104935000D03*
X164712500Y-104935000D03*
%TD*%
D21*
%TO.C,J5*%
X152000000Y-107000000D03*
%TD*%
D17*
%TO.C,C8*%
X135275000Y-110735000D03*
X135275000Y-117235000D03*
%TD*%
D18*
%TO.C,C5*%
X152665000Y-89426250D03*
X151115000Y-89426250D03*
%TD*%
D21*
%TO.C,J6*%
X150620000Y-68471250D03*
D22*
X148080000Y-68471250D03*
X145540000Y-68471250D03*
X143000000Y-68471250D03*
X140460000Y-68471250D03*
X137920000Y-68471250D03*
%TD*%
%LPD*%
M02*
