M48
; DRILL file {KiCad 8.0.4} date 2024-08-18T15:43:04+0200
; FORMAT={-:-/ absolute / inch / decimal}
; #@! TF.CreationDate,2024-08-18T15:43:04+02:00
; #@! TF.GenerationSoftware,Kicad,Pcbnew,8.0.4
; #@! TF.FileFunction,Plated,1,2,PTH
FMAT,2
INCH
; #@! TA.AperFunction,Plated,PTH,ViaDrill
T1C0.0118
; #@! TA.AperFunction,Plated,PTH,ComponentDrill
T2C0.0118
; #@! TA.AperFunction,Plated,PTH,ComponentDrill
T3C0.0252
; #@! TA.AperFunction,Plated,PTH,ComponentDrill
T4C0.0394
%
G90
G05
T1
X5.7008Y-4.0376
X5.8258Y-3.8876
T2
X5.7785Y-4.4876
X5.7785Y-4.5348
X5.8258Y-4.4876
X5.8258Y-4.5348
X5.877Y-4.4876
X5.877Y-4.5348
X5.9203Y-4.4876
X5.9203Y-4.5348
T3
X6.3272Y-2.6041
X6.3272Y-2.9041
X6.4272Y-2.6041
X6.4272Y-2.9041
X6.5272Y-2.6041
X6.5272Y-2.9041
T4
X4.9758Y-4.1626
X4.9758Y-4.2626
X4.9758Y-4.3626
X5.1575Y-3.1039
X5.1575Y-3.5039
X5.4299Y-2.6957
X5.5299Y-2.6957
X5.6299Y-2.6957
X5.7299Y-2.6957
X5.8299Y-2.6957
X5.8758Y-4.8126
X5.9299Y-2.6957
X5.9843Y-4.2126
X6.3772Y-2.4541
X6.4772Y-2.4541
X6.4772Y-5.1791
X6.5772Y-5.1791
M30
