%TF.GenerationSoftware,KiCad,Pcbnew,8.0.4*%
%TF.CreationDate,2024-08-01T19:49:29+02:00*%
%TF.ProjectId,amplification-board,616d706c-6966-4696-9361-74696f6e2d62,rev?*%
%TF.SameCoordinates,Original*%
%TF.FileFunction,Legend,Top*%
%TF.FilePolarity,Positive*%
%FSLAX46Y46*%
G04 Gerber Fmt 4.6, Leading zero omitted, Abs format (unit mm)*
G04 Created by KiCad (PCBNEW 8.0.4) date 2024-08-01 19:49:29*
%MOMM*%
%LPD*%
G01*
G04 APERTURE LIST*
G04 Aperture macros list*
%AMRoundRect*
0 Rectangle with rounded corners*
0 $1 Rounding radius*
0 $2 $3 $4 $5 $6 $7 $8 $9 X,Y pos of 4 corners*
0 Add a 4 corners polygon primitive as box body*
4,1,4,$2,$3,$4,$5,$6,$7,$8,$9,$2,$3,0*
0 Add four circle primitives for the rounded corners*
1,1,$1+$1,$2,$3*
1,1,$1+$1,$4,$5*
1,1,$1+$1,$6,$7*
1,1,$1+$1,$8,$9*
0 Add four rect primitives between the rounded corners*
20,1,$1+$1,$2,$3,$4,$5,0*
20,1,$1+$1,$4,$5,$6,$7,0*
20,1,$1+$1,$6,$7,$8,$9,0*
20,1,$1+$1,$8,$9,$2,$3,0*%
G04 Aperture macros list end*
%ADD10C,0.100000*%
%ADD11C,0.150000*%
%ADD12C,0.120000*%
%ADD13R,1.700000X1.700000*%
%ADD14R,1.550000X0.600000*%
%ADD15R,2.600000X3.100000*%
%ADD16RoundRect,0.225000X-0.225000X-0.250000X0.225000X-0.250000X0.225000X0.250000X-0.225000X0.250000X0*%
%ADD17RoundRect,0.200000X-0.200000X-0.275000X0.200000X-0.275000X0.200000X0.275000X-0.200000X0.275000X0*%
%ADD18RoundRect,0.200000X0.200000X0.275000X-0.200000X0.275000X-0.200000X-0.275000X0.200000X-0.275000X0*%
%ADD19RoundRect,0.135000X-0.185000X0.135000X-0.185000X-0.135000X0.185000X-0.135000X0.185000X0.135000X0*%
%ADD20O,1.700000X1.700000*%
G04 APERTURE END LIST*
D10*
X132320312Y-84867180D02*
X132272693Y-84914800D01*
X132272693Y-84914800D02*
X132129836Y-84962419D01*
X132129836Y-84962419D02*
X132034598Y-84962419D01*
X132034598Y-84962419D02*
X131891741Y-84914800D01*
X131891741Y-84914800D02*
X131796503Y-84819561D01*
X131796503Y-84819561D02*
X131748884Y-84724323D01*
X131748884Y-84724323D02*
X131701265Y-84533847D01*
X131701265Y-84533847D02*
X131701265Y-84390990D01*
X131701265Y-84390990D02*
X131748884Y-84200514D01*
X131748884Y-84200514D02*
X131796503Y-84105276D01*
X131796503Y-84105276D02*
X131891741Y-84010038D01*
X131891741Y-84010038D02*
X132034598Y-83962419D01*
X132034598Y-83962419D02*
X132129836Y-83962419D01*
X132129836Y-83962419D02*
X132272693Y-84010038D01*
X132272693Y-84010038D02*
X132320312Y-84057657D01*
X132891741Y-84962419D02*
X132796503Y-84914800D01*
X132796503Y-84914800D02*
X132748884Y-84867180D01*
X132748884Y-84867180D02*
X132701265Y-84771942D01*
X132701265Y-84771942D02*
X132701265Y-84486228D01*
X132701265Y-84486228D02*
X132748884Y-84390990D01*
X132748884Y-84390990D02*
X132796503Y-84343371D01*
X132796503Y-84343371D02*
X132891741Y-84295752D01*
X132891741Y-84295752D02*
X133034598Y-84295752D01*
X133034598Y-84295752D02*
X133129836Y-84343371D01*
X133129836Y-84343371D02*
X133177455Y-84390990D01*
X133177455Y-84390990D02*
X133225074Y-84486228D01*
X133225074Y-84486228D02*
X133225074Y-84771942D01*
X133225074Y-84771942D02*
X133177455Y-84867180D01*
X133177455Y-84867180D02*
X133129836Y-84914800D01*
X133129836Y-84914800D02*
X133034598Y-84962419D01*
X133034598Y-84962419D02*
X132891741Y-84962419D01*
X134082217Y-84295752D02*
X134082217Y-84962419D01*
X133653646Y-84295752D02*
X133653646Y-84819561D01*
X133653646Y-84819561D02*
X133701265Y-84914800D01*
X133701265Y-84914800D02*
X133796503Y-84962419D01*
X133796503Y-84962419D02*
X133939360Y-84962419D01*
X133939360Y-84962419D02*
X134034598Y-84914800D01*
X134034598Y-84914800D02*
X134082217Y-84867180D01*
X134558408Y-84295752D02*
X134558408Y-85295752D01*
X134558408Y-84343371D02*
X134653646Y-84295752D01*
X134653646Y-84295752D02*
X134844122Y-84295752D01*
X134844122Y-84295752D02*
X134939360Y-84343371D01*
X134939360Y-84343371D02*
X134986979Y-84390990D01*
X134986979Y-84390990D02*
X135034598Y-84486228D01*
X135034598Y-84486228D02*
X135034598Y-84771942D01*
X135034598Y-84771942D02*
X134986979Y-84867180D01*
X134986979Y-84867180D02*
X134939360Y-84914800D01*
X134939360Y-84914800D02*
X134844122Y-84962419D01*
X134844122Y-84962419D02*
X134653646Y-84962419D01*
X134653646Y-84962419D02*
X134558408Y-84914800D01*
X135606027Y-84962419D02*
X135510789Y-84914800D01*
X135510789Y-84914800D02*
X135463170Y-84819561D01*
X135463170Y-84819561D02*
X135463170Y-83962419D01*
X135986980Y-84962419D02*
X135986980Y-84295752D01*
X135986980Y-83962419D02*
X135939361Y-84010038D01*
X135939361Y-84010038D02*
X135986980Y-84057657D01*
X135986980Y-84057657D02*
X136034599Y-84010038D01*
X136034599Y-84010038D02*
X135986980Y-83962419D01*
X135986980Y-83962419D02*
X135986980Y-84057657D01*
X136463170Y-84295752D02*
X136463170Y-84962419D01*
X136463170Y-84390990D02*
X136510789Y-84343371D01*
X136510789Y-84343371D02*
X136606027Y-84295752D01*
X136606027Y-84295752D02*
X136748884Y-84295752D01*
X136748884Y-84295752D02*
X136844122Y-84343371D01*
X136844122Y-84343371D02*
X136891741Y-84438609D01*
X136891741Y-84438609D02*
X136891741Y-84962419D01*
X137796503Y-84295752D02*
X137796503Y-85105276D01*
X137796503Y-85105276D02*
X137748884Y-85200514D01*
X137748884Y-85200514D02*
X137701265Y-85248133D01*
X137701265Y-85248133D02*
X137606027Y-85295752D01*
X137606027Y-85295752D02*
X137463170Y-85295752D01*
X137463170Y-85295752D02*
X137367932Y-85248133D01*
X137796503Y-84914800D02*
X137701265Y-84962419D01*
X137701265Y-84962419D02*
X137510789Y-84962419D01*
X137510789Y-84962419D02*
X137415551Y-84914800D01*
X137415551Y-84914800D02*
X137367932Y-84867180D01*
X137367932Y-84867180D02*
X137320313Y-84771942D01*
X137320313Y-84771942D02*
X137320313Y-84486228D01*
X137320313Y-84486228D02*
X137367932Y-84390990D01*
X137367932Y-84390990D02*
X137415551Y-84343371D01*
X137415551Y-84343371D02*
X137510789Y-84295752D01*
X137510789Y-84295752D02*
X137701265Y-84295752D01*
X137701265Y-84295752D02*
X137796503Y-84343371D01*
X139606027Y-84867180D02*
X139558408Y-84914800D01*
X139558408Y-84914800D02*
X139415551Y-84962419D01*
X139415551Y-84962419D02*
X139320313Y-84962419D01*
X139320313Y-84962419D02*
X139177456Y-84914800D01*
X139177456Y-84914800D02*
X139082218Y-84819561D01*
X139082218Y-84819561D02*
X139034599Y-84724323D01*
X139034599Y-84724323D02*
X138986980Y-84533847D01*
X138986980Y-84533847D02*
X138986980Y-84390990D01*
X138986980Y-84390990D02*
X139034599Y-84200514D01*
X139034599Y-84200514D02*
X139082218Y-84105276D01*
X139082218Y-84105276D02*
X139177456Y-84010038D01*
X139177456Y-84010038D02*
X139320313Y-83962419D01*
X139320313Y-83962419D02*
X139415551Y-83962419D01*
X139415551Y-83962419D02*
X139558408Y-84010038D01*
X139558408Y-84010038D02*
X139606027Y-84057657D01*
X140463170Y-84962419D02*
X140463170Y-84438609D01*
X140463170Y-84438609D02*
X140415551Y-84343371D01*
X140415551Y-84343371D02*
X140320313Y-84295752D01*
X140320313Y-84295752D02*
X140129837Y-84295752D01*
X140129837Y-84295752D02*
X140034599Y-84343371D01*
X140463170Y-84914800D02*
X140367932Y-84962419D01*
X140367932Y-84962419D02*
X140129837Y-84962419D01*
X140129837Y-84962419D02*
X140034599Y-84914800D01*
X140034599Y-84914800D02*
X139986980Y-84819561D01*
X139986980Y-84819561D02*
X139986980Y-84724323D01*
X139986980Y-84724323D02*
X140034599Y-84629085D01*
X140034599Y-84629085D02*
X140129837Y-84581466D01*
X140129837Y-84581466D02*
X140367932Y-84581466D01*
X140367932Y-84581466D02*
X140463170Y-84533847D01*
X140939361Y-84295752D02*
X140939361Y-85295752D01*
X140939361Y-84343371D02*
X141034599Y-84295752D01*
X141034599Y-84295752D02*
X141225075Y-84295752D01*
X141225075Y-84295752D02*
X141320313Y-84343371D01*
X141320313Y-84343371D02*
X141367932Y-84390990D01*
X141367932Y-84390990D02*
X141415551Y-84486228D01*
X141415551Y-84486228D02*
X141415551Y-84771942D01*
X141415551Y-84771942D02*
X141367932Y-84867180D01*
X141367932Y-84867180D02*
X141320313Y-84914800D01*
X141320313Y-84914800D02*
X141225075Y-84962419D01*
X141225075Y-84962419D02*
X141034599Y-84962419D01*
X141034599Y-84962419D02*
X140939361Y-84914800D01*
X125922693Y-92900038D02*
X125827455Y-92852419D01*
X125827455Y-92852419D02*
X125684598Y-92852419D01*
X125684598Y-92852419D02*
X125541741Y-92900038D01*
X125541741Y-92900038D02*
X125446503Y-92995276D01*
X125446503Y-92995276D02*
X125398884Y-93090514D01*
X125398884Y-93090514D02*
X125351265Y-93280990D01*
X125351265Y-93280990D02*
X125351265Y-93423847D01*
X125351265Y-93423847D02*
X125398884Y-93614323D01*
X125398884Y-93614323D02*
X125446503Y-93709561D01*
X125446503Y-93709561D02*
X125541741Y-93804800D01*
X125541741Y-93804800D02*
X125684598Y-93852419D01*
X125684598Y-93852419D02*
X125779836Y-93852419D01*
X125779836Y-93852419D02*
X125922693Y-93804800D01*
X125922693Y-93804800D02*
X125970312Y-93757180D01*
X125970312Y-93757180D02*
X125970312Y-93423847D01*
X125970312Y-93423847D02*
X125779836Y-93423847D01*
X126398884Y-93852419D02*
X126398884Y-92852419D01*
X126398884Y-92852419D02*
X126970312Y-93852419D01*
X126970312Y-93852419D02*
X126970312Y-92852419D01*
X127446503Y-93852419D02*
X127446503Y-92852419D01*
X127446503Y-92852419D02*
X127684598Y-92852419D01*
X127684598Y-92852419D02*
X127827455Y-92900038D01*
X127827455Y-92900038D02*
X127922693Y-92995276D01*
X127922693Y-92995276D02*
X127970312Y-93090514D01*
X127970312Y-93090514D02*
X128017931Y-93280990D01*
X128017931Y-93280990D02*
X128017931Y-93423847D01*
X128017931Y-93423847D02*
X127970312Y-93614323D01*
X127970312Y-93614323D02*
X127922693Y-93709561D01*
X127922693Y-93709561D02*
X127827455Y-93804800D01*
X127827455Y-93804800D02*
X127684598Y-93852419D01*
X127684598Y-93852419D02*
X127446503Y-93852419D01*
X124763884Y-96011466D02*
X125525789Y-96011466D01*
X126525788Y-96392419D02*
X125954360Y-96392419D01*
X126240074Y-96392419D02*
X126240074Y-95392419D01*
X126240074Y-95392419D02*
X126144836Y-95535276D01*
X126144836Y-95535276D02*
X126049598Y-95630514D01*
X126049598Y-95630514D02*
X125954360Y-95678133D01*
X127430550Y-95392419D02*
X126954360Y-95392419D01*
X126954360Y-95392419D02*
X126906741Y-95868609D01*
X126906741Y-95868609D02*
X126954360Y-95820990D01*
X126954360Y-95820990D02*
X127049598Y-95773371D01*
X127049598Y-95773371D02*
X127287693Y-95773371D01*
X127287693Y-95773371D02*
X127382931Y-95820990D01*
X127382931Y-95820990D02*
X127430550Y-95868609D01*
X127430550Y-95868609D02*
X127478169Y-95963847D01*
X127478169Y-95963847D02*
X127478169Y-96201942D01*
X127478169Y-96201942D02*
X127430550Y-96297180D01*
X127430550Y-96297180D02*
X127382931Y-96344800D01*
X127382931Y-96344800D02*
X127287693Y-96392419D01*
X127287693Y-96392419D02*
X127049598Y-96392419D01*
X127049598Y-96392419D02*
X126954360Y-96344800D01*
X126954360Y-96344800D02*
X126906741Y-96297180D01*
X127763884Y-95392419D02*
X128097217Y-96392419D01*
X128097217Y-96392419D02*
X128430550Y-95392419D01*
X156704360Y-101107419D02*
X156894836Y-101107419D01*
X156894836Y-101107419D02*
X156990074Y-101155038D01*
X156990074Y-101155038D02*
X157085312Y-101250276D01*
X157085312Y-101250276D02*
X157132931Y-101440752D01*
X157132931Y-101440752D02*
X157132931Y-101774085D01*
X157132931Y-101774085D02*
X157085312Y-101964561D01*
X157085312Y-101964561D02*
X156990074Y-102059800D01*
X156990074Y-102059800D02*
X156894836Y-102107419D01*
X156894836Y-102107419D02*
X156704360Y-102107419D01*
X156704360Y-102107419D02*
X156609122Y-102059800D01*
X156609122Y-102059800D02*
X156513884Y-101964561D01*
X156513884Y-101964561D02*
X156466265Y-101774085D01*
X156466265Y-101774085D02*
X156466265Y-101440752D01*
X156466265Y-101440752D02*
X156513884Y-101250276D01*
X156513884Y-101250276D02*
X156609122Y-101155038D01*
X156609122Y-101155038D02*
X156704360Y-101107419D01*
X157990074Y-101440752D02*
X157990074Y-102107419D01*
X157561503Y-101440752D02*
X157561503Y-101964561D01*
X157561503Y-101964561D02*
X157609122Y-102059800D01*
X157609122Y-102059800D02*
X157704360Y-102107419D01*
X157704360Y-102107419D02*
X157847217Y-102107419D01*
X157847217Y-102107419D02*
X157942455Y-102059800D01*
X157942455Y-102059800D02*
X157990074Y-102012180D01*
X158323408Y-101440752D02*
X158704360Y-101440752D01*
X158466265Y-101107419D02*
X158466265Y-101964561D01*
X158466265Y-101964561D02*
X158513884Y-102059800D01*
X158513884Y-102059800D02*
X158609122Y-102107419D01*
X158609122Y-102107419D02*
X158704360Y-102107419D01*
X159037694Y-101440752D02*
X159037694Y-102440752D01*
X159037694Y-101488371D02*
X159132932Y-101440752D01*
X159132932Y-101440752D02*
X159323408Y-101440752D01*
X159323408Y-101440752D02*
X159418646Y-101488371D01*
X159418646Y-101488371D02*
X159466265Y-101535990D01*
X159466265Y-101535990D02*
X159513884Y-101631228D01*
X159513884Y-101631228D02*
X159513884Y-101916942D01*
X159513884Y-101916942D02*
X159466265Y-102012180D01*
X159466265Y-102012180D02*
X159418646Y-102059800D01*
X159418646Y-102059800D02*
X159323408Y-102107419D01*
X159323408Y-102107419D02*
X159132932Y-102107419D01*
X159132932Y-102107419D02*
X159037694Y-102059800D01*
X160371027Y-101440752D02*
X160371027Y-102107419D01*
X159942456Y-101440752D02*
X159942456Y-101964561D01*
X159942456Y-101964561D02*
X159990075Y-102059800D01*
X159990075Y-102059800D02*
X160085313Y-102107419D01*
X160085313Y-102107419D02*
X160228170Y-102107419D01*
X160228170Y-102107419D02*
X160323408Y-102059800D01*
X160323408Y-102059800D02*
X160371027Y-102012180D01*
X160704361Y-101440752D02*
X161085313Y-101440752D01*
X160847218Y-101107419D02*
X160847218Y-101964561D01*
X160847218Y-101964561D02*
X160894837Y-102059800D01*
X160894837Y-102059800D02*
X160990075Y-102107419D01*
X160990075Y-102107419D02*
X161085313Y-102107419D01*
X133303884Y-101872419D02*
X133303884Y-100872419D01*
X133780074Y-101205752D02*
X133780074Y-101872419D01*
X133780074Y-101300990D02*
X133827693Y-101253371D01*
X133827693Y-101253371D02*
X133922931Y-101205752D01*
X133922931Y-101205752D02*
X134065788Y-101205752D01*
X134065788Y-101205752D02*
X134161026Y-101253371D01*
X134161026Y-101253371D02*
X134208645Y-101348609D01*
X134208645Y-101348609D02*
X134208645Y-101872419D01*
X134684836Y-101205752D02*
X134684836Y-102205752D01*
X134684836Y-101253371D02*
X134780074Y-101205752D01*
X134780074Y-101205752D02*
X134970550Y-101205752D01*
X134970550Y-101205752D02*
X135065788Y-101253371D01*
X135065788Y-101253371D02*
X135113407Y-101300990D01*
X135113407Y-101300990D02*
X135161026Y-101396228D01*
X135161026Y-101396228D02*
X135161026Y-101681942D01*
X135161026Y-101681942D02*
X135113407Y-101777180D01*
X135113407Y-101777180D02*
X135065788Y-101824800D01*
X135065788Y-101824800D02*
X134970550Y-101872419D01*
X134970550Y-101872419D02*
X134780074Y-101872419D01*
X134780074Y-101872419D02*
X134684836Y-101824800D01*
X136018169Y-101205752D02*
X136018169Y-101872419D01*
X135589598Y-101205752D02*
X135589598Y-101729561D01*
X135589598Y-101729561D02*
X135637217Y-101824800D01*
X135637217Y-101824800D02*
X135732455Y-101872419D01*
X135732455Y-101872419D02*
X135875312Y-101872419D01*
X135875312Y-101872419D02*
X135970550Y-101824800D01*
X135970550Y-101824800D02*
X136018169Y-101777180D01*
X136351503Y-101205752D02*
X136732455Y-101205752D01*
X136494360Y-100872419D02*
X136494360Y-101729561D01*
X136494360Y-101729561D02*
X136541979Y-101824800D01*
X136541979Y-101824800D02*
X136637217Y-101872419D01*
X136637217Y-101872419D02*
X136732455Y-101872419D01*
X124763884Y-90931466D02*
X125525789Y-90931466D01*
X125144836Y-91312419D02*
X125144836Y-90550514D01*
X126525788Y-91312419D02*
X125954360Y-91312419D01*
X126240074Y-91312419D02*
X126240074Y-90312419D01*
X126240074Y-90312419D02*
X126144836Y-90455276D01*
X126144836Y-90455276D02*
X126049598Y-90550514D01*
X126049598Y-90550514D02*
X125954360Y-90598133D01*
X127430550Y-90312419D02*
X126954360Y-90312419D01*
X126954360Y-90312419D02*
X126906741Y-90788609D01*
X126906741Y-90788609D02*
X126954360Y-90740990D01*
X126954360Y-90740990D02*
X127049598Y-90693371D01*
X127049598Y-90693371D02*
X127287693Y-90693371D01*
X127287693Y-90693371D02*
X127382931Y-90740990D01*
X127382931Y-90740990D02*
X127430550Y-90788609D01*
X127430550Y-90788609D02*
X127478169Y-90883847D01*
X127478169Y-90883847D02*
X127478169Y-91121942D01*
X127478169Y-91121942D02*
X127430550Y-91217180D01*
X127430550Y-91217180D02*
X127382931Y-91264800D01*
X127382931Y-91264800D02*
X127287693Y-91312419D01*
X127287693Y-91312419D02*
X127049598Y-91312419D01*
X127049598Y-91312419D02*
X126954360Y-91264800D01*
X126954360Y-91264800D02*
X126906741Y-91217180D01*
X127763884Y-90312419D02*
X128097217Y-91312419D01*
X128097217Y-91312419D02*
X128430550Y-90312419D01*
D11*
X153971666Y-99124819D02*
X153971666Y-99839104D01*
X153971666Y-99839104D02*
X153924047Y-99981961D01*
X153924047Y-99981961D02*
X153828809Y-100077200D01*
X153828809Y-100077200D02*
X153685952Y-100124819D01*
X153685952Y-100124819D02*
X153590714Y-100124819D01*
X154924047Y-99124819D02*
X154447857Y-99124819D01*
X154447857Y-99124819D02*
X154400238Y-99601009D01*
X154400238Y-99601009D02*
X154447857Y-99553390D01*
X154447857Y-99553390D02*
X154543095Y-99505771D01*
X154543095Y-99505771D02*
X154781190Y-99505771D01*
X154781190Y-99505771D02*
X154876428Y-99553390D01*
X154876428Y-99553390D02*
X154924047Y-99601009D01*
X154924047Y-99601009D02*
X154971666Y-99696247D01*
X154971666Y-99696247D02*
X154971666Y-99934342D01*
X154971666Y-99934342D02*
X154924047Y-100029580D01*
X154924047Y-100029580D02*
X154876428Y-100077200D01*
X154876428Y-100077200D02*
X154781190Y-100124819D01*
X154781190Y-100124819D02*
X154543095Y-100124819D01*
X154543095Y-100124819D02*
X154447857Y-100077200D01*
X154447857Y-100077200D02*
X154400238Y-100029580D01*
X143223095Y-93744819D02*
X143223095Y-94554342D01*
X143223095Y-94554342D02*
X143270714Y-94649580D01*
X143270714Y-94649580D02*
X143318333Y-94697200D01*
X143318333Y-94697200D02*
X143413571Y-94744819D01*
X143413571Y-94744819D02*
X143604047Y-94744819D01*
X143604047Y-94744819D02*
X143699285Y-94697200D01*
X143699285Y-94697200D02*
X143746904Y-94649580D01*
X143746904Y-94649580D02*
X143794523Y-94554342D01*
X143794523Y-94554342D02*
X143794523Y-93744819D01*
X144794523Y-94744819D02*
X144223095Y-94744819D01*
X144508809Y-94744819D02*
X144508809Y-93744819D01*
X144508809Y-93744819D02*
X144413571Y-93887676D01*
X144413571Y-93887676D02*
X144318333Y-93982914D01*
X144318333Y-93982914D02*
X144223095Y-94030533D01*
X153971666Y-81579819D02*
X153971666Y-82294104D01*
X153971666Y-82294104D02*
X153924047Y-82436961D01*
X153924047Y-82436961D02*
X153828809Y-82532200D01*
X153828809Y-82532200D02*
X153685952Y-82579819D01*
X153685952Y-82579819D02*
X153590714Y-82579819D01*
X154400238Y-81675057D02*
X154447857Y-81627438D01*
X154447857Y-81627438D02*
X154543095Y-81579819D01*
X154543095Y-81579819D02*
X154781190Y-81579819D01*
X154781190Y-81579819D02*
X154876428Y-81627438D01*
X154876428Y-81627438D02*
X154924047Y-81675057D01*
X154924047Y-81675057D02*
X154971666Y-81770295D01*
X154971666Y-81770295D02*
X154971666Y-81865533D01*
X154971666Y-81865533D02*
X154924047Y-82008390D01*
X154924047Y-82008390D02*
X154352619Y-82579819D01*
X154352619Y-82579819D02*
X154971666Y-82579819D01*
X143971666Y-81579819D02*
X143971666Y-82294104D01*
X143971666Y-82294104D02*
X143924047Y-82436961D01*
X143924047Y-82436961D02*
X143828809Y-82532200D01*
X143828809Y-82532200D02*
X143685952Y-82579819D01*
X143685952Y-82579819D02*
X143590714Y-82579819D01*
X144971666Y-82579819D02*
X144400238Y-82579819D01*
X144685952Y-82579819D02*
X144685952Y-81579819D01*
X144685952Y-81579819D02*
X144590714Y-81722676D01*
X144590714Y-81722676D02*
X144495476Y-81817914D01*
X144495476Y-81817914D02*
X144400238Y-81865533D01*
X148913333Y-83384580D02*
X148865714Y-83432200D01*
X148865714Y-83432200D02*
X148722857Y-83479819D01*
X148722857Y-83479819D02*
X148627619Y-83479819D01*
X148627619Y-83479819D02*
X148484762Y-83432200D01*
X148484762Y-83432200D02*
X148389524Y-83336961D01*
X148389524Y-83336961D02*
X148341905Y-83241723D01*
X148341905Y-83241723D02*
X148294286Y-83051247D01*
X148294286Y-83051247D02*
X148294286Y-82908390D01*
X148294286Y-82908390D02*
X148341905Y-82717914D01*
X148341905Y-82717914D02*
X148389524Y-82622676D01*
X148389524Y-82622676D02*
X148484762Y-82527438D01*
X148484762Y-82527438D02*
X148627619Y-82479819D01*
X148627619Y-82479819D02*
X148722857Y-82479819D01*
X148722857Y-82479819D02*
X148865714Y-82527438D01*
X148865714Y-82527438D02*
X148913333Y-82575057D01*
X149865714Y-83479819D02*
X149294286Y-83479819D01*
X149580000Y-83479819D02*
X149580000Y-82479819D01*
X149580000Y-82479819D02*
X149484762Y-82622676D01*
X149484762Y-82622676D02*
X149389524Y-82717914D01*
X149389524Y-82717914D02*
X149294286Y-82765533D01*
X125833333Y-101024819D02*
X125500000Y-100548628D01*
X125261905Y-101024819D02*
X125261905Y-100024819D01*
X125261905Y-100024819D02*
X125642857Y-100024819D01*
X125642857Y-100024819D02*
X125738095Y-100072438D01*
X125738095Y-100072438D02*
X125785714Y-100120057D01*
X125785714Y-100120057D02*
X125833333Y-100215295D01*
X125833333Y-100215295D02*
X125833333Y-100358152D01*
X125833333Y-100358152D02*
X125785714Y-100453390D01*
X125785714Y-100453390D02*
X125738095Y-100501009D01*
X125738095Y-100501009D02*
X125642857Y-100548628D01*
X125642857Y-100548628D02*
X125261905Y-100548628D01*
X126785714Y-101024819D02*
X126214286Y-101024819D01*
X126500000Y-101024819D02*
X126500000Y-100024819D01*
X126500000Y-100024819D02*
X126404762Y-100167676D01*
X126404762Y-100167676D02*
X126309524Y-100262914D01*
X126309524Y-100262914D02*
X126214286Y-100310533D01*
X135088333Y-95229819D02*
X134755000Y-94753628D01*
X134516905Y-95229819D02*
X134516905Y-94229819D01*
X134516905Y-94229819D02*
X134897857Y-94229819D01*
X134897857Y-94229819D02*
X134993095Y-94277438D01*
X134993095Y-94277438D02*
X135040714Y-94325057D01*
X135040714Y-94325057D02*
X135088333Y-94420295D01*
X135088333Y-94420295D02*
X135088333Y-94563152D01*
X135088333Y-94563152D02*
X135040714Y-94658390D01*
X135040714Y-94658390D02*
X134993095Y-94706009D01*
X134993095Y-94706009D02*
X134897857Y-94753628D01*
X134897857Y-94753628D02*
X134516905Y-94753628D01*
X135469286Y-94325057D02*
X135516905Y-94277438D01*
X135516905Y-94277438D02*
X135612143Y-94229819D01*
X135612143Y-94229819D02*
X135850238Y-94229819D01*
X135850238Y-94229819D02*
X135945476Y-94277438D01*
X135945476Y-94277438D02*
X135993095Y-94325057D01*
X135993095Y-94325057D02*
X136040714Y-94420295D01*
X136040714Y-94420295D02*
X136040714Y-94515533D01*
X136040714Y-94515533D02*
X135993095Y-94658390D01*
X135993095Y-94658390D02*
X135421667Y-95229819D01*
X135421667Y-95229819D02*
X136040714Y-95229819D01*
X157199819Y-96686666D02*
X156723628Y-97019999D01*
X157199819Y-97258094D02*
X156199819Y-97258094D01*
X156199819Y-97258094D02*
X156199819Y-96877142D01*
X156199819Y-96877142D02*
X156247438Y-96781904D01*
X156247438Y-96781904D02*
X156295057Y-96734285D01*
X156295057Y-96734285D02*
X156390295Y-96686666D01*
X156390295Y-96686666D02*
X156533152Y-96686666D01*
X156533152Y-96686666D02*
X156628390Y-96734285D01*
X156628390Y-96734285D02*
X156676009Y-96781904D01*
X156676009Y-96781904D02*
X156723628Y-96877142D01*
X156723628Y-96877142D02*
X156723628Y-97258094D01*
X156199819Y-96353332D02*
X156199819Y-95734285D01*
X156199819Y-95734285D02*
X156580771Y-96067618D01*
X156580771Y-96067618D02*
X156580771Y-95924761D01*
X156580771Y-95924761D02*
X156628390Y-95829523D01*
X156628390Y-95829523D02*
X156676009Y-95781904D01*
X156676009Y-95781904D02*
X156771247Y-95734285D01*
X156771247Y-95734285D02*
X157009342Y-95734285D01*
X157009342Y-95734285D02*
X157104580Y-95781904D01*
X157104580Y-95781904D02*
X157152200Y-95829523D01*
X157152200Y-95829523D02*
X157199819Y-95924761D01*
X157199819Y-95924761D02*
X157199819Y-96210475D01*
X157199819Y-96210475D02*
X157152200Y-96305713D01*
X157152200Y-96305713D02*
X157104580Y-96353332D01*
X130476666Y-99124819D02*
X130476666Y-99839104D01*
X130476666Y-99839104D02*
X130429047Y-99981961D01*
X130429047Y-99981961D02*
X130333809Y-100077200D01*
X130333809Y-100077200D02*
X130190952Y-100124819D01*
X130190952Y-100124819D02*
X130095714Y-100124819D01*
X131381428Y-99458152D02*
X131381428Y-100124819D01*
X131143333Y-99077200D02*
X130905238Y-99791485D01*
X130905238Y-99791485D02*
X131524285Y-99791485D01*
X130476666Y-87929819D02*
X130476666Y-88644104D01*
X130476666Y-88644104D02*
X130429047Y-88786961D01*
X130429047Y-88786961D02*
X130333809Y-88882200D01*
X130333809Y-88882200D02*
X130190952Y-88929819D01*
X130190952Y-88929819D02*
X130095714Y-88929819D01*
X130857619Y-87929819D02*
X131476666Y-87929819D01*
X131476666Y-87929819D02*
X131143333Y-88310771D01*
X131143333Y-88310771D02*
X131286190Y-88310771D01*
X131286190Y-88310771D02*
X131381428Y-88358390D01*
X131381428Y-88358390D02*
X131429047Y-88406009D01*
X131429047Y-88406009D02*
X131476666Y-88501247D01*
X131476666Y-88501247D02*
X131476666Y-88739342D01*
X131476666Y-88739342D02*
X131429047Y-88834580D01*
X131429047Y-88834580D02*
X131381428Y-88882200D01*
X131381428Y-88882200D02*
X131286190Y-88929819D01*
X131286190Y-88929819D02*
X131000476Y-88929819D01*
X131000476Y-88929819D02*
X130905238Y-88882200D01*
X130905238Y-88882200D02*
X130857619Y-88834580D01*
D12*
%TO.C,J5*%
X152975000Y-100670000D02*
X154305000Y-100670000D01*
X152975000Y-102000000D02*
X152975000Y-100670000D01*
X152975000Y-103270000D02*
X152975000Y-103330000D01*
X152975000Y-103270000D02*
X155635000Y-103270000D01*
X152975000Y-103330000D02*
X155635000Y-103330000D01*
X155635000Y-103270000D02*
X155635000Y-103330000D01*
D11*
%TO.C,U1*%
X141910000Y-95215000D02*
X146060000Y-95215000D01*
X141910000Y-100365000D02*
X146060000Y-100365000D01*
D12*
X141485000Y-95290000D02*
X141245000Y-94960000D01*
X141725000Y-94960000D01*
X141485000Y-95290000D01*
G36*
X141485000Y-95290000D02*
G01*
X141245000Y-94960000D01*
X141725000Y-94960000D01*
X141485000Y-95290000D01*
G37*
%TO.C,J2*%
X152975000Y-83125000D02*
X154305000Y-83125000D01*
X152975000Y-84455000D02*
X152975000Y-83125000D01*
X152975000Y-85725000D02*
X152975000Y-85785000D01*
X152975000Y-85725000D02*
X155635000Y-85725000D01*
X152975000Y-85785000D02*
X155635000Y-85785000D01*
X155635000Y-85725000D02*
X155635000Y-85785000D01*
%TO.C,J1*%
X142975000Y-83125000D02*
X144305000Y-83125000D01*
X142975000Y-84455000D02*
X142975000Y-83125000D01*
X142975000Y-85725000D02*
X142975000Y-85785000D01*
X142975000Y-85725000D02*
X145635000Y-85725000D01*
X142975000Y-85785000D02*
X145635000Y-85785000D01*
X145635000Y-85725000D02*
X145635000Y-85785000D01*
%TO.C,C1*%
X148939420Y-83945000D02*
X149220580Y-83945000D01*
X148939420Y-84965000D02*
X149220580Y-84965000D01*
%TO.C,R1*%
X125762742Y-101477500D02*
X126237258Y-101477500D01*
X125762742Y-102522500D02*
X126237258Y-102522500D01*
%TO.C,R2*%
X135492258Y-92822500D02*
X135017742Y-92822500D01*
X135492258Y-93867500D02*
X135017742Y-93867500D01*
%TO.C,R3*%
X155195000Y-96366359D02*
X155195000Y-96673641D01*
X155955000Y-96366359D02*
X155955000Y-96673641D01*
%TO.C,J4*%
X129480000Y-100670000D02*
X130810000Y-100670000D01*
X129480000Y-102000000D02*
X129480000Y-100670000D01*
X129480000Y-103270000D02*
X129480000Y-103330000D01*
X129480000Y-103270000D02*
X132140000Y-103270000D01*
X129480000Y-103330000D02*
X132140000Y-103330000D01*
X132140000Y-103270000D02*
X132140000Y-103330000D01*
%TO.C,J3*%
X129480000Y-89475000D02*
X130810000Y-89475000D01*
X129480000Y-90805000D02*
X129480000Y-89475000D01*
X129480000Y-92075000D02*
X129480000Y-97215000D01*
X129480000Y-92075000D02*
X132140000Y-92075000D01*
X129480000Y-97215000D02*
X132140000Y-97215000D01*
X132140000Y-92075000D02*
X132140000Y-97215000D01*
%TD*%
%LPC*%
D13*
%TO.C,J5*%
X154305000Y-102000000D03*
%TD*%
D14*
%TO.C,U1*%
X141285000Y-95885000D03*
X141285000Y-97155000D03*
X141285000Y-98425000D03*
X141285000Y-99695000D03*
X146685000Y-99695000D03*
X146685000Y-98425000D03*
X146685000Y-97155000D03*
X146685000Y-95885000D03*
D15*
X143985000Y-97790000D03*
%TD*%
D13*
%TO.C,J2*%
X154305000Y-84455000D03*
%TD*%
%TO.C,J1*%
X144305000Y-84455000D03*
%TD*%
D16*
%TO.C,C1*%
X148305000Y-84455000D03*
X149855000Y-84455000D03*
%TD*%
D17*
%TO.C,R1*%
X125175000Y-102000000D03*
X126825000Y-102000000D03*
%TD*%
D18*
%TO.C,R2*%
X136080000Y-93345000D03*
X134430000Y-93345000D03*
%TD*%
D19*
%TO.C,R3*%
X155575000Y-96010000D03*
X155575000Y-97030000D03*
%TD*%
D13*
%TO.C,J4*%
X130810000Y-102000000D03*
%TD*%
%TO.C,J3*%
X130810000Y-90805000D03*
D20*
X130810000Y-93345000D03*
X130810000Y-95885000D03*
%TD*%
%LPD*%
M02*
